<svg xmlns="http://www.w3.org/2000/svg" width="50" height="50" viewBox="0 0 50 50"><circle cx="25" cy="25" r="25" fill="#f3ba2f"/><path d="M183.324,330.225V334.5l-3.724,2.188-3.618-2.188v-4.271l3.618,2.188ZM163.4,315.453l3.618,2.188v7.324l6.23,3.724v4.271l-9.847-5.806Zm32.4,0v11.718l-9.953,5.806v-4.271l6.23-3.724v-7.324Zm-9.971-5.806,3.724,2.188h0v4.271l-6.23,3.724v7.43l-3.618,2.188-3.6-2.188v-7.447l-6.459-3.724v-4.271l3.724-2.188,6.23,3.724Zm-16.183,9.512,3.618,2.188v4.271l-3.618-2.188Zm19.907,0v4.271l-3.618,2.188v-4.271Zm-22.536-13.236,3.724,2.188-3.724,2.188v4.271l-3.618-2.188v-4.271Zm25.166,0,3.724,2.188v4.271l-3.724,2.188V310.3l-3.618-2.188Zm-12.583,0,3.724,2.188L179.6,310.3l-3.618-2.188Zm0-7.324,9.953,5.806-3.618,2.188-6.23-3.724-6.353,3.724-3.618-2.188Z" transform="translate(-154.654 -292.642)" fill="#fff"/></svg>
