<svg xmlns="http://www.w3.org/2000/svg" width="50" height="50" viewBox="0 0 50 50"><circle cx="25" cy="25" r="25" fill="#f7931a"/><path d="M31.644,18.531c.491-3.275-2-5.036-5.414-6.211l1.106-4.437-2.7-.672-1.078,4.32c-.709-.178-1.437-.344-2.164-.509L22.48,6.673,19.78,6l-1.106,4.436c-.588-.134-1.166-.266-1.725-.406l0-.014-3.725-.93-.719,2.884s2,.459,1.963.488a1.437,1.437,0,0,1,1.258,1.572L14.47,19.084a2.4,2.4,0,0,1,.281.089l-.286-.07L12.7,26.184a.985.985,0,0,1-1.239.641c.028.039-1.962-.489-1.962-.489L8.157,29.427l3.516.877c.653.164,1.294.336,1.923.5l-1.117,4.487,2.7.672,1.106-4.437c.737.2,1.453.383,2.153.558l-1.1,4.419,2.7.672,1.117-4.478c4.606.872,8.069.52,9.527-3.645,1.175-3.353-.058-5.289-2.481-6.55a4.305,4.305,0,0,0,3.448-3.966Zm-6.172,8.653c-.833,3.355-6.481,1.541-8.312,1.086l1.484-5.945C20.476,22.783,26.346,23.688,25.473,27.184Zm.836-8.7c-.761,3.052-5.461,1.5-6.984,1.12l1.344-5.391c1.523.38,6.434,1.087,5.641,4.27Z" transform="translate(4.588 3.375)" fill="#fff"/></svg>
