<svg xmlns="http://www.w3.org/2000/svg" width="50" height="50" viewBox="0 0 50 50"><circle cx="25" cy="25" r="25" fill="#988430"/><circle cx="24.199" cy="24.199" r="24.199" transform="translate(0.801 0.801)" fill="#7a6a2a"/><circle cx="23.689" cy="23.689" r="23.689" transform="translate(1.311 1.311)" fill="#ba9f33"/><path d="M139.381,722.225c-.142-.129-.291-.259-.429-.388s-.279-.259-.421-.388l-.421-.4c-.069-.069-.142-.129-.21-.2l-.218-.19c-.558-.53-1.12-1.06-1.671-1.59.57.522,1.129,1.04,1.7,1.57l.2.2c.069.068.142.129.21.2l.421.388c.142.129.279.259.421.4s.279.271.421.4Zm-7.411-.08s2.031.21,3.022.352c.918.13,3.79.57,3.79.57Zm0,0c.57.049,1.141.109,1.711.17.291.028.57.06.85.089l.429.049.421.061,1.7.271.849.142c.279.049.558.1.85.15-.279-.028-.57-.069-.85-.109l-.849-.121-1.7-.251c-.142-.02-.279-.049-.421-.069l-.429-.049c-.279-.028-.57-.069-.85-.1-.57-.068-1.141-.142-1.711-.23Zm6.61,1.451s-2.168.55-2.9.761-2.9.862-2.9.862l5.8-1.622Z" transform="translate(-128.451 -699.895)" fill="#cfb66c" fill-rule="evenodd"/><path d="M168.715,888.8c-.481.142-.96.279-1.448.409l-1.448.388c-.481.142-.96.279-1.44.421l-.72.2c-.239.069-.481.129-.728.2.238-.08.481-.162.72-.231l.72-.23c.481-.15.96-.292,1.44-.441.489-.121.971-.251,1.46-.368.465-.117.955-.234,1.444-.344h0Zm-5.5,2.957c.238-.089,2.989-1.371,3.629-1.671.32-.15,1.25-.48,1.25-.48Z" transform="translate(-158.585 -865.099)" fill="#cfb66c" fill-rule="evenodd"/><path d="M173.69,922.038c.21-.08.409-.178.611-.271l.6-.279,1.2-.578c.4-.19.789-.4,1.2-.579.21-.089.421-.162.631-.23l.32-.1c.109-.028.21-.061.32-.089-.4.19-.821.352-1.222.538s-.809.36-1.222.538l-1.222.538c-.41.166-.81.344-1.218.514h0Zm.267,1.12s2.492-1.46,3.349-1.93c.449-.251,1.9-.971,1.9-.971Z" transform="translate(-169.058 -895.379)" fill="#cfb66c" fill-rule="evenodd"/><path d="M183.71,935.558c.421-.259.849-.522,1.278-.789l.64-.388c.218-.129.429-.251.651-.38s.429-.259.651-.38a2.338,2.338,0,0,1,.332-.17l.34-.17c.449-.218.9-.441,1.371-.631-.429.271-.87.5-1.311.74-.218.121-.441.231-.659.352s-.429.251-.651.368-.429.251-.651.368l-.659.36-1.331.72h0Zm5.23-2.581s-1.549,1.189-2.051,1.57S184.911,936,184.911,936Z" transform="translate(-178.811 -907.779)" fill="#cfb66c" fill-rule="evenodd"/><path d="M684.353,703.81l-.793-1.5.461-1.877,3.289-1.27-1.4-2.872.692-2.9,1.3-2.6,4.013-.631,2.949-2.811,6.367.481,1.25,6.808-2.407,8.572-1.371,4.438-5.558.21-2.581-1.788-3.022-1.262Z" transform="translate(-665.332 -669.021)" fill="#e2cc85" fill-rule="evenodd"/><path d="M411.339,1090.467a4.7,4.7,0,0,1-2.08.271c-.379-.51-3.037-.748-3.037-.748a1.485,1.485,0,0,0-.918.142,10.231,10.231,0,0,1-1.671.34c-.522.129-1.04-.55-1.44-.692a5.622,5.622,0,0,1-.93-.51l-1.12-.109-2.249-.951-3.573-3.56-.971,1.52-.3,1.881,1.08,2.229,2.909,2.65,5.671,1.44,3.362-.99,4.211-1.78,1.056-1.133Z" transform="translate(-382.569 -1055.726)" fill="#f1d789" fill-rule="evenodd"/><path d="M304.67,691.619l.72-2.18.858-1.408,2.763-.231-.829,2.419-2.31,4.11L306.83,698l-1.7.849-.522-.8-.421-1.837-.028-2.063Z" transform="translate(-296.049 -669.459)" fill="#f4ecb4" fill-rule="evenodd"/><path d="M312.625,859.384l-.53-.74a1.215,1.215,0,0,1-.061-.659c.08-.311.069-.332.028-.449s-.38-.522-.36-.87-.028-.469.23-.748a.939.939,0,0,0,.19-.74l.352.218.08-.121a.36.36,0,0,1,.129.259c.028-.218-.089-1.23.178-1.46s.74,1.08.74,1.08l-.291-1.9-.749-1.95-1.331-1.78-.08-1.962v-.17a6.6,6.6,0,0,0-.781,1.68c-.121.51.17,1.129.109,1.861s-.109.671.069.96.611.882.441,1.311c-.15.368-.659.109-.659.109a1.106,1.106,0,0,1-.239.408.906.906,0,0,0-.2-.4c-.008.069-.028.162-.028.162s-.089-.279-.178-.631c-.121-.469-.251-1.088-.368-1.42-.049.19-.17.769-.17.769l.069.89.332,1.222.32.8.311.979.271.658.218.5.19,1.129.918.971.49.219.356-.182h0Z" transform="translate(-300.906 -824.793)" fill="#f3e19d" fill-rule="evenodd"/><path d="M300.1,717.509a7.69,7.69,0,0,0-.849,2.249,14.873,14.873,0,0,0-.24,3.859,15.984,15.984,0,0,0,.538,3.18,17.72,17.72,0,0,0,1.149,2.7l.028-.061a4.262,4.262,0,0,1-.332-.829c-.109-.429-.15-.938-.251-1.169a5.575,5.575,0,0,1-.311-.712,3.042,3.042,0,0,0-.291-1.019,2.066,2.066,0,0,1-.231-.809c-.041-.51.02-1.08-.028-1.549a6.231,6.231,0,0,1-.069-1.719c.081-.409.5-1.569.761-2.492.17-.591.069-1.088.38-1.6a4.524,4.524,0,0,0,.57-1.27c.08-.283-.825,1.246-.825,1.246h0Z" transform="translate(-290.996 -697.129)" fill="#f2e8b0" fill-rule="evenodd"/><path d="M377.1,747.42a1.323,1.323,0,0,0-.5.279,7.291,7.291,0,0,0-.449.6,4.7,4.7,0,0,0-.409.882c-.178.352-.57.882-.619,1.072s-.129,1.08-.23,1.5a2.02,2.02,0,0,0,.1.939l.23-.049a.727.727,0,0,0,.231.5c.23.2.271-.672.271-.672l.862-2.909,1.3-.882.142-.712-.926-.55h0Z" transform="translate(-364.873 -727.489)" fill="#f5eec0" fill-rule="evenodd"/><path d="M397.461,784.158a2.176,2.176,0,0,0-.91.259c-.121.089-.17.162-.3.271a1.978,1.978,0,0,0-.6.64,4.243,4.243,0,0,0-.368,1.391c-.041.311-.041.6-.069.85a3.537,3.537,0,0,0-.069.8c.041.388.441.591.48,1.031l.829-.421.781-3.079,1.659-1.04-.939-1.052-.5.347h0Z" transform="translate(-384.601 -762.908)" fill="#e6db9d" fill-rule="evenodd"/><path d="M318.17,1217.009l.01-.092c.121-1.04.142-1.828.23-2.322a6.1,6.1,0,0,0,.2-1.222,5.5,5.5,0,0,1-.02-1.052c.061-.429.481-.938.469-1.29a1.093,1.093,0,0,0-.271-.631c-.121-.17-.218-.312-.218-.312s.829-.57.821-2.868a.219.219,0,0,1,.049.02l.409,1.161.279.34,1.072,2,1.379,1.339,2.039,1.371,1.278,1.391.129,3.71-1.671,2.168-.274.5a23.768,23.768,0,0,1-5.91-4.206Z" transform="translate(-309.686 -1175.028)" fill="#e5cb7a" fill-rule="evenodd"/><path d="M509.56,1314.163a1.143,1.143,0,0,1,.409-.76.454.454,0,0,1,.089.271,2.412,2.412,0,0,1,1.638-1.1,1.684,1.684,0,0,0,1.351-.991l2.31-2.1,2.642-2.431,3.212-1.129,1.5-.368a.829.829,0,0,1-.028.352,7.3,7.3,0,0,0,1.541-.388c.259-.1.5-.142.631-.008a1.387,1.387,0,0,1,.23.849c.312-.069.672-.368.96-.34.461.048.87.591,1.339.591.619,0,.9-.38,1.331-.68.259-.178.631-.4.841-.55.5-.368,5.809-1.99,5.809-1.99l1.861.121.3,2-.16,5.224-.06.057-8.461,4.419-11.728,1.8a23.522,23.522,0,0,1-7.5-2.579l-.06-.267h0Z" transform="translate(-495.972 -1268.633)" fill="#d8c173" fill-rule="evenodd"/><path d="M344.85,1572.044c.167-.349.317-.64.343-.744.021.21.059.671.136,1.161q-.242-.205-.479-.417Z" transform="translate(-335.654 -1529.399)" fill="#f1d789" fill-rule="evenodd"/><path d="M666.052,1432.9l1.517-.422.129.041s.069.041.069.178c.19-.109.352-.089.469-.162.061.129.121.558.388.611a1.188,1.188,0,0,0,.882-.352,5.891,5.891,0,0,1,.9-.66,4.838,4.838,0,0,1,.251.538c.34-.271.93-1.371,1.772-1.351a3.192,3.192,0,0,1,1.169-1.412,2.543,2.543,0,0,1,1.881-.522,3.216,3.216,0,0,1,.882-.789.812.812,0,0,0,.728.049c.352-.162.748-.789,1.27-.87a1.226,1.226,0,0,1,.809.17,13.2,13.2,0,0,1,2.569-2.011c-.041-.121-.121-.578,1.108-1.59.069.061.02.231.069.24a2.856,2.856,0,0,0,.7-.421,5.7,5.7,0,0,1,1.371-.821,1.919,1.919,0,0,1,1.319.2.607.607,0,0,1,.19-.089,2.5,2.5,0,0,0,.368-.08,2.556,2.556,0,0,1,0,.882,1.963,1.963,0,0,0,.4.17,1.808,1.808,0,0,1-.469.712c.21.1.238.218.538.32a5.937,5.937,0,0,0-.409.64c-.089.19-.409.979-.55,1.278s-.352.85-.449.96a7.7,7.7,0,0,1-.72.809c.24-.089,1.222-.388,1.638-.5-.124.182-.753,1.115-1.357,2.011a23.738,23.738,0,0,1-19.432,2.25Z" transform="translate(-648.289 -1385.34)" fill="#e0cd81" fill-rule="evenodd"/><path d="M470.375,704.508a1.464,1.464,0,0,0-.421.049c-.069.049.352.15.481.2a1.105,1.105,0,0,1,.481.449,20.529,20.529,0,0,0,2.528,1.161l1.739-.089.6-.828-1.141-1,.8-2.358-1.06.17-2.549,1.52-1.278.49-.182.239Z" transform="translate(-457.415 -683.368)" fill="#dfc57c" fill-rule="evenodd"/><path d="M629.055,793.259a.273.273,0,0,0,.24.129,1.076,1.076,0,0,1,.829.271c.231.292.87,1.222.87,1.222l1.529.55.1-1.8-1.671-1.161-1.9.7v.089h0Z" transform="translate(-612.275 -771.337)" fill="#e5cc7c" fill-rule="evenodd"/><path d="M584.4,831.271a1.663,1.663,0,0,0,.631-.109c.352-.13.93-.409,1.181-.3.352.15.279.619.659,1.04.23.259.651.251.89.53s1.06.15,1.06.15l.311,1.68-1.25,1.6-.409,1.99h-1.69l-1.544-.613-.76-1.84.38-1.861.54-2.27Z" transform="translate(-567.921 -808.682)" fill="#d2c281" fill-rule="evenodd"/><path d="M738.984,761.43a.46.46,0,0,0,.129.02.335.335,0,0,0-.109.36c.041.231.17.522.061.7a.876.876,0,0,1,.19.332c.069.2.089.38.538.409a.941.941,0,0,0-.178.142,2.959,2.959,0,0,1,.469.522,3.858,3.858,0,0,0,.59-.14l.089.061.19-.08s-.178-.069-.048-.5c.121-.38.231-.36.24-.388a3.982,3.982,0,0,0,.089-.591,7.1,7.1,0,0,0,.109-.849l-.129-1.412-.728-.441-.592-.572-.558,1.052-.368.367-.028.91.044.1Z" transform="translate(-719.235 -738.76)" fill="#e2c270" fill-rule="evenodd"/><path d="M806.28,521.159a4.94,4.94,0,0,1,.178.651.63.63,0,0,0,.028-.17s.1.558.121.789c.041-.008.08-.02.089.02a3.359,3.359,0,0,1,.08.74,2.017,2.017,0,0,1,.679-.68,1.188,1.188,0,0,1,.55-.219c.311-.008.538.2.91.2a6.919,6.919,0,0,0,2.31-.862,3.055,3.055,0,0,0,1.088-.5,2.843,2.843,0,0,0,.57-.712c.279-.48.57-.9.862-.95a1.808,1.808,0,0,1-.4.028s.089-.089.24-.21a.933.933,0,0,1,.59-.271c.461,0,.692.068.951.068a1.294,1.294,0,0,0,.409-.068,1.629,1.629,0,0,0,.882.19c.611.008,1.019.061,1.339.089s1.391-.089,1.7-.08a1.488,1.488,0,0,1,.579.142l-.991-2.88-3.56-3.112-2.12,1.5-3.261,3.261-3.155,1.169-.659.74v1.129Z" transform="translate(-784.779 -499.67)" fill="#ccb360" fill-rule="evenodd"/><path d="M1024.067,550.821s.089-.089.238-.21a.93.93,0,0,1,.591-.271c.461,0,.692.069.951.069a1.29,1.29,0,0,0,.409-.069,1.631,1.631,0,0,0,.882.19c.611.008,1.019.061,1.339.089s1.391-.089,1.7-.08a1.481,1.481,0,0,1,.578.142l-.449-1.3-.522-.991-1.489-1.63-1.8-1.06c-.008-.008-.619-.17-.619-.17l-1.618.979-1.468,3.8-.028.8.95.449c.239-.4.5-.72.748-.761-.223.024-.392.024-.392.024h0Z" transform="translate(-995.486 -530.983)" fill="#d5b457" fill-rule="evenodd"/><path d="M861.4,733.572c-.142.008-.259-.02-.291-.121-.121-.34-.218-.388-.32-.388s-.239.218-.32.238-.178-.251-.178-.251l-.089-.041a5.419,5.419,0,0,0-.89.74,7.39,7.39,0,0,1-1.242,1.2,13.4,13.4,0,0,1-1.52.231,1.97,1.97,0,0,0-.72.352c-.049.053.142.109.17.162s-.312.028-.34.08a1.307,1.307,0,0,0,.13.388.659.659,0,0,1,.279-.069c.312-.008.538.2.91.2a6.911,6.911,0,0,0,2.31-.862,3.052,3.052,0,0,0,1.088-.5,2.858,2.858,0,0,0,.57-.712,5.059,5.059,0,0,1,.453-.647h0Z" transform="translate(-832.844 -713.463)" fill="#d2b257" fill-rule="evenodd"/><path d="M384.963,1246.657a3.38,3.38,0,0,0-.821-1.072c-.21-.218-.34-.4-.481-.53a6.484,6.484,0,0,0-.809-.611c-.55-.409-1.149-.409-1.61-.91a8.379,8.379,0,0,1-1.372-2.439c-.368-.979-.469-1.29-.469-1.319s.1-.218.231-.19.129.279.162.34a2,2,0,0,0,.218.279,2.661,2.661,0,0,1,.6.87,3.931,3.931,0,0,0-.142-.7s.712.449,1.319.918.862.631,1.04.93a14.4,14.4,0,0,0,.8,1.319,22.7,22.7,0,0,0,2.96,1.1l1.312.979.651,1.428-.51.8-.979.21-1.59-.712-.509-.69h0Z" transform="translate(-369.283 -1206.527)" fill="#d2b159" fill-rule="evenodd"/><path d="M455.55,1277.671a3.708,3.708,0,0,0,1.141,1.031,10.939,10.939,0,0,0,2.909,1.08,8.137,8.137,0,0,0,1.711.259,24.627,24.627,0,0,0,3.629-.522,17.43,17.43,0,0,0,2.31-.32,11.87,11.87,0,0,0,2.589-.96c.631-.291,1.21-.51,1.679-.789a7.138,7.138,0,0,1,1.7-.95,1.442,1.442,0,0,1-.692.882c.291-.008.692-.028.692-.028a12.98,12.98,0,0,0-1.072.748c-.421.32-.979.862-1.549,1.222-.368.231-.769.4-1.032.538a4.631,4.631,0,0,0-1.319.96.576.576,0,0,1,.162,0,3.153,3.153,0,0,0-.91.271,1.23,1.23,0,0,0-.461.041c-.19.061-.441.2-.7.271a.881.881,0,0,1-.489.061l.061.121s-.48-.008-.64.008c.028.008.02.02.02.02a.243.243,0,0,0-.08.028.837.837,0,0,1-.251.109c-.049.008-.089.008-.15.02.02.048.178.32.251.48-.061.04-.971.728-.971.728a.692.692,0,0,1,.069.142c.028.089.041.218.069.279.069.121.109.142.109.142s-.109.02-.3.069a5.277,5.277,0,0,1-.64.15,2.551,2.551,0,0,1-.259.02.707.707,0,0,1-.109.821c-.328.392-.429.449-.53.7a1.083,1.083,0,0,0-.162-.1.68.68,0,0,1-.311-.218,2.594,2.594,0,0,1-.121.38,4.725,4.725,0,0,0-.279.74c-.109-.121-.311-.36-.591-.311s-.5.429-.55.538c0-.069-.049-.121-.061-.041a3.075,3.075,0,0,1-1.019,1.772c-.008-.19-.008-.611-.028-.748a1.963,1.963,0,0,1-.761.449c-.57.251-.48.5-.48.5a1.254,1.254,0,0,1,.259-.821c.311-.42.5-.619.5-.651a.18.18,0,0,0-.041-.089c-.041-.041-.121-.089-.121-.121a.813.813,0,0,0,.5-.728,1.292,1.292,0,0,0-.34-.809c-.02-.02.19-.17.162-.218-.02-.028-.279-.219-.311-.32a.932.932,0,0,1,.041-.178.5.5,0,0,0,.041-.21,1.681,1.681,0,0,0-.162-.409,2.213,2.213,0,0,0,.23,0,2.006,2.006,0,0,1-.19-.38,4.919,4.919,0,0,0-.121-.5c.069.008.239.02.239,0,.008-.061-.15-.162-.08-.24a.407.407,0,0,1,.23.162.925.925,0,0,0-.3-.481.735.735,0,0,1,.591.04.794.794,0,0,1,.32.34s.142.109.36.271a3.924,3.924,0,0,0,1.08.679,1.12,1.12,0,0,0,.591.02.907.907,0,0,0,.251-.1.468.468,0,0,1,.089-.041,1.934,1.934,0,0,0-.15-.251c.069,0,.15.008.15.008s.049-.109-.17-.32c.049-.049.109-.08.109-.162a.478.478,0,0,1-.218-.15c.04-.028.1-.121.17-.15-.061-.049-.21-.251-.279-.271a1.28,1.28,0,0,0,.19-.089,2.333,2.333,0,0,1-.449-.162,2.675,2.675,0,0,0-.368-.259c-.1-.041-.279-.061-.352-.142a1.106,1.106,0,0,0,.259,0c.06,0,.089.008.109.008-.008-.028-.008-.089.15-.109a.739.739,0,0,0,.218-.069.559.559,0,0,1-.32-.17,1.244,1.244,0,0,0-.409-.311c-.1-.02-.291.069-.409.061a.369.369,0,0,1-.231-.1,3.385,3.385,0,0,1-1.731-.68,6.1,6.1,0,0,1-1.481-1.189,1.788,1.788,0,0,1-.279-.13c-.388-.2-.926-.623-.91-1.173h0Z" transform="translate(-443.402 -1242.46)" fill="#c2a44d" fill-rule="evenodd"/><path d="M1008.628,390.832a.525.525,0,0,1,.24.162.746.746,0,0,1-.121,1.072.691.691,0,0,0,.388.061,1.891,1.891,0,0,0-.51.89.339.339,0,0,0,.15.352,1.346,1.346,0,0,0-.271.8,3.243,3.243,0,0,1,.4-.38,10.627,10.627,0,0,1,.991-.679.571.571,0,0,0,.028.21s.522-.429.96-.238c.2.089.109.368.109.368a.463.463,0,0,1,.461.089,8.6,8.6,0,0,1,.6.871,6.374,6.374,0,0,1,.38.522,6.6,6.6,0,0,1,.55,1.161c.008-.21.061-.538.659-.332a3.673,3.673,0,0,1,1.849,1.52c.57.869.712,1.849,1,2.222a3.166,3.166,0,0,1,.611,1.21,10.6,10.6,0,0,0,.51,3.248c.17-.679.429-2.189.429-2.189l.142-1.331.162-4.118-4.3-3.573-3.362-2.439-2.189.21.137.311h0Z" transform="translate(-981.597 -379.902)" fill="#caa13e" fill-rule="evenodd"/><path d="M1110.719,242.668s-.061-.4-1.072-1.08-1.8-.671-2.528-1.242c-.558-.449-1.141-1.481-1.52-1.821a2.478,2.478,0,0,1-.429-1.307l1.242-1.04,1.847-2.67,1.561-1.719.748,1.04,1.04,1.222.578,2.451.21,3.588-1.68,2.577Z" transform="translate(-1075.699 -225.609)" fill="#b59544" fill-rule="evenodd"/><path d="M1310.136,522.043a4.561,4.561,0,0,0-.2-1.61,29.689,29.689,0,0,0-1.12-2.853c-.109-.611-.028-.659.089-.728a1.788,1.788,0,0,0,.8-1.2,1.14,1.14,0,0,1,.991-.91l.461-.34.7,1.751.611,1.582.19,1.21.142,1.031-.332,2.181-1.638,1.481-.7-1.593h0Z" transform="translate(-1273.866 -500.683)" fill="#c89d3a" fill-rule="evenodd"/><path d="M502.89,1700.672v-.045a.349.349,0,0,0,.089-.08c.028-.041.049-.089.069-.1a.76.76,0,0,1,.332-.061,2.571,2.571,0,0,0,.51.121,3.345,3.345,0,0,1,1.169-.129c.809.15,1,.7,1.469,1.011a.93.93,0,0,0,.7.121h.109c.02,0,.17-.17.251-.162.162.008.178.142.279.15a9.1,9.1,0,0,1,.931-.06.444.444,0,0,1,.291.291.45.45,0,0,1-.109.449,1.789,1.789,0,0,0-.538.64,2.314,2.314,0,0,1,.178.15,23.557,23.557,0,0,1-5.728-2.293Z" transform="translate(-489.48 -1655.008)" fill="#ceb052" fill-rule="evenodd"/><path d="M1310.68,704.1a13.978,13.978,0,0,0,.85-1.258c.218-.43-.692-5.87-.692-5.87l1.829-5.991-.049-1.95a17.937,17.937,0,0,1,.3-2.581c.251.449,1.032.991,1.2,1.278a14.873,14.873,0,0,0,.312-2.949,22.067,22.067,0,0,1,.51,2.549l.36,1.561.469,1.659.522,1.752.312,1.21.178.291.15.51.142.55.409,1.29.24,1.06.19,1.922a2.9,2.9,0,0,1,.089.449,1.872,1.872,0,0,1-.028.368,4.414,4.414,0,0,1,.041.781,1.1,1.1,0,0,1-.292.8,4.844,4.844,0,0,0-.409,1.6l-.449-.3a1.219,1.219,0,0,0-.121-.781.789.789,0,0,0-.85-.388,2.565,2.565,0,0,0-.841.251,2.631,2.631,0,0,1-2.209,1.052,3.736,3.736,0,0,0-1.149.6,6.416,6.416,0,0,1-1.011.533h0Z" transform="translate(-1275.729 -666.519)" fill="#cca847" fill-rule="evenodd"/><path d="M1310.68,1293.8s.027.017.078.046a23.76,23.76,0,0,0,7.573-5.613c-.023-.819-.053-1.658-.086-1.969-.068-.659-.02-1.331-.04-1.719s-.239-1.97-.34-2.379a1.035,1.035,0,0,0-.352-.611,4.872,4.872,0,0,0-.2.96c0,.191-.041.651-.041.769-.028-.008-.04-.08-.04-.109-.041.1-.089.279-.109.3s.028-.17,0-.21-.08-.02-.069-.121a1.153,1.153,0,0,1,.028-.178,1.85,1.85,0,0,0-.21.631c-.089.449-.089.461-.121.5s-.19.21-.2.271c-.008.109.15.219.162.279.008.1-.142.57-.19.8s-.028.68-.08.91c-.041.21-.08.332-.219.421.1.02.2.049.2.049a1.5,1.5,0,0,1-.218,1.108c-.129.178-.162.259-.3.421a1.86,1.86,0,0,0-.5.862,1.451,1.451,0,0,1-.028-.2,9.536,9.536,0,0,0-.6.769c-.23.36-.55.34-.64.429a.426.426,0,0,0-.08.38c-.08.02-.23.049-.332.36a.757.757,0,0,1-.36.429,1.913,1.913,0,0,1-.538.17.656.656,0,0,1,.19.061,3.209,3.209,0,0,1-.651.461,1.362,1.362,0,0,0-.538.651.466.466,0,0,1-.388.3c.08.048.2.162.259.2a.9.9,0,0,0-.51.251c-.283.235-.38.3-.51.324h0Z" transform="translate(-1275.729 -1247.375)" fill="#c39d3c" fill-rule="evenodd"/><path d="M1099.551,1778.356a2.285,2.285,0,0,1,.5-.265,10.682,10.682,0,0,1,1.561-.38,5.716,5.716,0,0,1,.76-.251c-.008.071-.015.137-.023.2a23.616,23.616,0,0,1-2.8.7Z" transform="translate(-1070.229 -1730.061)" fill="#d2ba6b" fill-rule="evenodd"/><path d="M1199.343,810.443a4.969,4.969,0,0,1-.36,1.141c-.231.441-.48,1.052-.48,1.052a1.921,1.921,0,0,1,.048-.409,11.5,11.5,0,0,0-1.2.761,4.063,4.063,0,0,0-.591.611,12.225,12.225,0,0,0,.421-1.29,25.976,25.976,0,0,0-2.359,2.071l-2.2,1.784a7.61,7.61,0,0,1-.785.367c-.38.162-.829.3-1.161.429a1.841,1.841,0,0,1,.429-.651,4.768,4.768,0,0,0,.938-1.2,1.091,1.091,0,0,0-.008-.809c-.109.028-.36.041-.53.089a1.035,1.035,0,0,0-.352.23,8.282,8.282,0,0,1,.408-1.44c-.21.008-.57.068-.57.068a5.134,5.134,0,0,1,1.36-1.428,4.425,4.425,0,0,0-.768.238c-.5.21-1.052.522-1.46.692a32.176,32.176,0,0,0,2.812-4.782,16.622,16.622,0,0,0,1.529-3.851,17.552,17.552,0,0,0,.109-2.168,14.584,14.584,0,0,0,.061-1.869,4.444,4.444,0,0,1,1.222,3.151,12.064,12.064,0,0,1-1.881,6.039c.24.069.862.15,1.5-.96a13.069,13.069,0,0,0,.862-1.881,1.667,1.667,0,0,1,.02.312,8.474,8.474,0,0,0,1.371-2.549,3.513,3.513,0,0,1-.061,2.27,2.245,2.245,0,0,1-.849,1.258,1.914,1.914,0,0,0,.59-.251c.061.15.049.32.15.38s.239.162.259.259a2.957,2.957,0,0,0,.332-.522,11.051,11.051,0,0,0,.08,2.431.823.823,0,0,0,.85-.611,2.5,2.5,0,0,0-.049,1.351,1.588,1.588,0,0,0,.315-.315h0Z" transform="translate(-1158.383 -778.744)" fill="#c0993a" fill-rule="evenodd"/><path d="M863.78,350.779a2.385,2.385,0,0,1-.841.129c-.461,0-.332-.178-1.052-.178-1.108,0-4.98.64-5.659.631a14.91,14.91,0,0,0,1.489.19l4.931.069.991-.08.368-.749Z" transform="translate(-833.331 -341.377)" fill="#a88f33" fill-rule="evenodd"/><path d="M603.55,681.541a5.632,5.632,0,0,0-.9.85,6.261,6.261,0,0,1-.712.91.622.622,0,0,0,.21-.028s0,.08-.049.1a.283.283,0,0,1,.23.08.411.411,0,0,0-.142.579.622.622,0,0,0,.441.238s-.069.2.218.178a16.349,16.349,0,0,1,1.63-.231.893.893,0,0,1,.728.5c.24.388.449.449.449.449a2.3,2.3,0,0,0,.109-.9,2.671,2.671,0,0,0,.19-.91l-.21-1.549-.918-1.161-1.189.659-.089.23Z" transform="translate(-585.888 -662.499)" fill="#e3c571" fill-rule="evenodd"/><path d="M704.64,481.4s.089.21.461.23a.209.209,0,0,0-.028.17c.008.069.02.17.02.17a.375.375,0,0,0,.109-.08c.02.089-.02.23,0,.332a.738.738,0,0,0,.061.178.365.365,0,0,1,.02-.04,1.593,1.593,0,0,0,.279.4.167.167,0,0,1,.02-.08.281.281,0,0,0,.049.142.147.147,0,0,1-.04-.028,4.62,4.62,0,0,0,.129.971.457.457,0,0,0,.049-.069c0-.02-.008.178-.028.32a1.4,1.4,0,0,0-.008.34,1.06,1.06,0,0,1,.238-.142.864.864,0,0,0,.441-.53,3.539,3.539,0,0,0,.162-.578.806.806,0,0,1,.08.24c.008.1.2.049.2.049l.041-.441.24-1,.218-.619,1.052-1.638,1.9-1.463,1.659.38,1.4-1.9-2.411-1.448-2.282.239-2.071,2.868-1.658,2.6-.3.429h0Z" transform="translate(-685.85 -462.586)" fill="#d8b65b" fill-rule="evenodd"/><path d="M799.847,406.456a2.635,2.635,0,0,0-.55.24c-.409.212-.692.279-.85.59a1.531,1.531,0,0,0-.17.558,3.867,3.867,0,0,1,.441-.162c.17-.04.36-.028.34.041a.47.47,0,0,1-.08.129s.32-.008.311.15a.834.834,0,0,1-.121.409c-.061.08-.311.2-.34.291-.069.19.028.2-.008.352a2.432,2.432,0,0,1-.6.951,5.1,5.1,0,0,0-.64.87,5.546,5.546,0,0,1-.332-.761c-.08.04-.51.279-.51.279l-1-3.467.02-.231a.618.618,0,0,0,.109-.311c-.15-.049-.17-.089-.368-.279a2.473,2.473,0,0,0-.691-.579.44.44,0,0,0-.352-.259c-.243-.049-.388-.089-.388-.089a.423.423,0,0,0,.19-.15,2.506,2.506,0,0,1-.6.061,2.507,2.507,0,0,0-.55.008c-.182.028-.4.109-.481-.17-.089-.069-.279-.008-.441.23s-.218.429-.53.522a1.085,1.085,0,0,1-.142.388,4.45,4.45,0,0,1-.421.522c-.3.352-.251.93-.728,1.371s.08-1.222.08-1.222l.769-1.84,2.189-2.14,3.4-.23.332,1.76,1.659.57,1.048,1.6h0Z" transform="translate(-769.107 -391.796)" fill="#d3ae4d" fill-rule="evenodd"/><path d="M1013.342,407.078l-1.428-2.059-1-.769s-.712-1.31-.761-1.351a9.416,9.416,0,0,0-1.141-.129l.08.2a.526.526,0,0,1,.24.162.746.746,0,0,1-.121,1.072.691.691,0,0,0,.388.061,1.891,1.891,0,0,0-.51.89.339.339,0,0,0,.15.352,1.347,1.347,0,0,0-.271.8,3.239,3.239,0,0,1,.4-.38,10.377,10.377,0,0,1,.991-.68.572.572,0,0,0,.028.21s.522-.429.96-.239c.2.089.109.368.109.368a.463.463,0,0,1,.461.089,8.566,8.566,0,0,1,.6.87,6.411,6.411,0,0,1,.38.522,6.6,6.6,0,0,1,.55,1.161c.008-.162.041-.388.32-.388l-.425-.761Z" transform="translate(-982.064 -392.029)" fill="#caa13e" fill-rule="evenodd"/><path d="M368.51,623.489a1.394,1.394,0,0,1,0-.74,7.449,7.449,0,0,0,.311-1.44,5.134,5.134,0,0,1,.522-1.618l1.3-.59.918.251.271,1.23-1.161.64a.891.891,0,0,1-.388.489c-.328.218-.781.388-.89.611a1.78,1.78,0,0,0-.142.429.608.608,0,0,0-.53.15.776.776,0,0,0-.21.591Z" transform="translate(-358.64 -602.591)" fill="#f4efc8" fill-rule="evenodd"/><path d="M340.573,498.944a.591.591,0,0,0-.19.24,4.872,4.872,0,0,1-.279-1.59c-.008-.692-.049-.863.111-1.1s.787-.49.7-.919a.672.672,0,0,0-.918-.461c-.32.08-.558.76-.89,1.1-.251.259-.55.218-.631.36-.109.19-.008.38-.041.5a2.421,2.421,0,0,1-.291.522,5.223,5.223,0,0,0-1.072,1.95,3.335,3.335,0,0,1,.109-.809l-.061-.1.4-1.311.259-1.08.579-1.809,1.019-1.849.991-1.109,1.031.069.121,1.549.591,2.909,1.242,1.529-1.99,1.339-.789.069h0Z" transform="translate(-328.081 -478.374)" fill="#ebcc73" fill-rule="evenodd"/><path d="M462.129,704.579a.5.5,0,0,1-.231.008c-.061-.032-.121-.069-.1-.109s.129-.109.129-.142a.113.113,0,0,0-.1-.121.11.11,0,0,0-.121.049.458.458,0,0,0-.162-.08,1.117,1.117,0,0,1,.129-.008,1.26,1.26,0,0,0-.352-.1c.1-.061.3-.239.429-.239s.21-.02.19-.089a.413.413,0,0,0-.23-.21c.04-.049.069-.121-.028-.32a.384.384,0,0,1-.028-.38,2.58,2.58,0,0,1,.178-.239.652.652,0,0,1,.17-.21,2.13,2.13,0,0,1,.3-.129c.142-.049.259-.109.34-.049a.111.111,0,0,1,.049.142.73.73,0,0,1,.53.028,4.007,4.007,0,0,0,.862.2l.219.441-1.448,1.242-.6.3-.121.02h0Z" transform="translate(-449.018 -683.459)" fill="#e5c66b" fill-rule="evenodd"/><path d="M494.108,608.229a5.593,5.593,0,0,0-.55.409c.061.008.162.049.121.109a6.522,6.522,0,0,0-.5.469,3.093,3.093,0,0,0-.388.57,2.051,2.051,0,0,1-.679.469c.332,0,1-.409,1.25-.409a.247.247,0,0,0,.21.271,1.572,1.572,0,0,0,1.1-.251c.55-.332.368-.579.6-.74.441-.291.619-.55.862-.712a1.574,1.574,0,0,1,.368-.2s.008-.121.08-.109a.109.109,0,0,1,.089.069,2.481,2.481,0,0,1,.96-.38.056.056,0,0,1-.028-.028s.04-.02.049-.041c0,0,.028-.041.049-.02s.049.17.089.231c.089-.041.259-.421.259-.421l.409-1.169V605.28l-.32.061-2.4,1.019-1.457,1.509-.17.36Z" transform="translate(-478.987 -589.139)" fill="#e6bd62" fill-rule="evenodd"/><path d="M707.617,487.475a1.356,1.356,0,0,0,.369-.15,1.67,1.67,0,0,1-.259.579,4.887,4.887,0,0,0-.388.671c-.17.332-.19.809-.352,1.019a.742.742,0,0,1,.23-.069,1.067,1.067,0,0,0-.23.291,1.382,1.382,0,0,1-.489.651,3.891,3.891,0,0,0-1.088.761c-.409.441-.829,1-1.04,1.2a2.994,2.994,0,0,0,.3-.821c.041-.251-.008-.55.061-.882a2.883,2.883,0,0,1,.4-1.149,19.683,19.683,0,0,0,.9-2.589l1.222-.388.368.874h0Z" transform="translate(-685.587 -473.624)" fill="#b6933f" fill-rule="evenodd"/><path d="M772.457,400.3a3.407,3.407,0,0,0-.469,1c-.1.469-.008.429-.069.659a.86.86,0,0,0,0,.429,1.522,1.522,0,0,1,.509-.5,4.173,4.173,0,0,0,.8-.538,2.95,2.95,0,0,1,.68-.74c-.15-.02-.36-.089-.4-.08a9.057,9.057,0,0,1,1.052-.74,4.058,4.058,0,0,1,1.149-.768,4.972,4.972,0,0,1-.55,0c.08-.17.36-.251.64-.53s-.178-.692-.178-.692l-2.133,1.29-1.031,1.214Z" transform="translate(-751.308 -387.192)" fill="#c49937" fill-rule="evenodd"/><path d="M576,160.688l.049-.388.611-.979.639-1.719v-2.35l-.049-1.359.1-.89.077-.283.081-.109.522.271.72.979.069,1.889-.7,2.981-2,2.181Z" transform="translate(-560.64 -148.54)" fill="#dfc068" fill-rule="evenodd"/><path d="M343.708,148.144s-.32.008-.388,1.339-.1,2.031-.15,2.69a14.474,14.474,0,0,1-.218,1.448,3.985,3.985,0,0,1-.271,1.242,2.856,2.856,0,0,1-.651.971,4.014,4.014,0,0,1-1.222.68,6.305,6.305,0,0,0-1.448.332,2.2,2.2,0,0,0-.6.38,7.64,7.64,0,0,0-1.61,2.18,30.38,30.38,0,0,0-1.44,5.429l.162-.271a2.57,2.57,0,0,1,.38-.991c.352-.631.251-1.339.74-2.549a13.89,13.89,0,0,1,.72-1.57,5.828,5.828,0,0,1,1.582-1.93,5,5,0,0,1,1.93-.769l1.088-.72s.19-.368.441-.789a5.108,5.108,0,0,0,.9-2.209,20.465,20.465,0,0,0-.19-3.192c.02-.841.028-1.46.2-1.61s.049-.093.049-.093h0Z" transform="translate(-326.758 -144.184)" fill="#a88f33" fill-rule="evenodd"/><path d="M631.591,152.6a15.451,15.451,0,0,0,.7-2.229c.041-.21.121-.421.142-.59a5.337,5.337,0,0,0,0-1.942,3.467,3.467,0,0,0-.692-1.04c-.2-.291-.291-.4-.251-.461a.448.448,0,0,1,.352-.15,1.2,1.2,0,0,1,.862.4,5.216,5.216,0,0,1,.558,1.582l.259,1.612.659,2.031-2.589.789h0Z" transform="translate(-614.641 -142.285)" fill="#c99e3d" fill-rule="evenodd"/><path d="M665.515,158.06a.411.411,0,0,1-.251,0,.361.361,0,0,1-.162.34,13.666,13.666,0,0,0-1.76.069,1.351,1.351,0,0,1-.971-1.109c-.162-.651.121-1.549.028-2.14a13.09,13.09,0,0,0-.36-1.311c-.02-.271-.041-.34-.041-.51a.938.938,0,0,0-.23-.049c-.02-.08.02-.15-.069-.291a1.61,1.61,0,0,1,.769.429,1.45,1.45,0,0,1,.368.469,3.76,3.76,0,0,1,.76.9c.21.418.619,1.751.712,1.97a1.446,1.446,0,0,0,.24.38c.235.291.578.773.967.853h0Z" transform="translate(-644.055 -148.978)" fill="#b58634" fill-rule="evenodd"/><path d="M706.47,187.5a11.209,11.209,0,0,1,.659,1.23,5.578,5.578,0,0,0,.68,1.339c-.162-.469-.449-1.391-.619-1.719a3.941,3.941,0,0,0-.72-.849h0Z" transform="translate(-687.631 -182.5)" fill="#a88f33" fill-rule="evenodd"/><path d="M451.986,436.89a5.913,5.913,0,0,0-1.169.5c-.251.129-.489.238-.72.34a12.569,12.569,0,0,1-1.752.659c.041.049.061.069.061.069a.51.51,0,0,0,.109.311c-.061.061-.87.611-.631,2.451.162-.061.352-.142.38-.142.049.008.061.142.121.142a.812.812,0,0,0,.469-.352,2.731,2.731,0,0,0,.522,1.95c.121-.142.429-.611.429-.611l.008-.15a4.062,4.062,0,0,1,.2-1,2.657,2.657,0,0,1,.5-.829l1.731-2.472-.259-.87h0Z" transform="translate(-435.898 -425.24)" fill="#e6c367" fill-rule="evenodd"/><path d="M532.387,361.378a.957.957,0,0,1-.259.129,1,1,0,0,1,.17-.789,10.556,10.556,0,0,0,1.06-1.36,2.95,2.95,0,0,1,1.032-1.821c.971-.87,1.351-1.169,1.351-1.169l1.57-.789,1.93.761-.959,3.757-.744,1.76-2.96-.558-2.19.078h0Z" transform="translate(-517.917 -346.098)" fill="#dcba5a" fill-rule="evenodd"/><path d="M585,439.561l.368-.461v-.328a2.093,2.093,0,0,0,.849-.558c.441-.449,1.052-1.311,1.59-1.258s.591,1.169.611,1.481a8.509,8.509,0,0,0,.2,1.4c.121.38-1.311,1.82-1.311,1.82l-.973.74L585,439.561Z" transform="translate(-569.4 -425.302)" fill="#e9ce77" fill-rule="evenodd"/><path d="M627.73,532.379s.3-.469.08-.57a3.46,3.46,0,0,1,.368-.6,3.024,3.024,0,0,1,.72-.938,3.13,3.13,0,0,0,.979-1.21,3.187,3.187,0,0,0,.089-.692,1.313,1.313,0,0,0,.19.129,1.13,1.13,0,0,1,.449,1.088,1.787,1.787,0,0,1-.32.991,4.758,4.758,0,0,1-.429.38c-.19.129-.259.279-.579.291a.384.384,0,0,1,.109-.061.744.744,0,0,0-.51.121c-.178.162-.557.659-.747.809-.19.121-.4.259-.4.259h0Z" transform="translate(-610.991 -514.28)" fill="#cdae50" fill-rule="evenodd"/><path d="M691.979,343.448a4.871,4.871,0,0,0-1.489-.291c-.85-.028-2.091.02-3.309.028-1.311.008-2.5-.449-4.15-.53-.271-.162-.96-.87-3.111.631.129-.008,1.562-.332,2.059.291a2.5,2.5,0,0,1,.291,1.921c-.13.558-.55,1.371-.72,1.942s-.13.87-.251,1.27-.388.6-.231,1.06c.21-.129.32-.129.671-.918s.279-1.351.862-2.019a13.153,13.153,0,0,1,1.881-1.821,7.011,7.011,0,0,1,6.23-.3c.724-.077,1.266-1.266,1.266-1.266h0Z" transform="translate(-661.789 -333.217)" fill="#d2a83e" fill-rule="evenodd"/><path d="M590.136,350.306a.368.368,0,0,0-.02-.089.649.649,0,0,0-.109-.162,5.19,5.19,0,0,0-1.072-.089c-.631.069-1.2.85-1.469,1.25a7.389,7.389,0,0,1-.959,1.339.134.134,0,0,0-.02-.089s.02.028-.02.069-.041.061-.02.08l.061.061a4.958,4.958,0,0,0,1.339-.96,6.744,6.744,0,0,1,1.752-1.25,2.462,2.462,0,0,1,.538-.159h0Z" transform="translate(-570.796 -340.626)" fill="#c29637" fill-rule="evenodd"/><path d="M1083.563,248.94s-.13.162-.291.34c-.36.38-.829.809-1.23,1.25-.38.421-.809.749-1.291,1.3s-1.04,1.161-1.181,1.339a1.32,1.32,0,0,0-.23.619c-.069-.049-.15-.1-.15-.1a1.019,1.019,0,0,0,.121.178c.1.142.259.32.34.429a1.309,1.309,0,0,1,.21.461c.048.008.36.069.748-.57s.9-1.339.9-1.339l.809-1.2.51-1.019.64-1.141.1-.542h0Z" transform="translate(-1050.411 -242.302)" fill="#ac8132" fill-rule="evenodd"/><path d="M1226.11,218.3a6.169,6.169,0,0,0-.68.64c-.19.24-.64.87-.64.87l.162-.02.821-.728.32-.57.016-.19Z" transform="translate(-1192.129 -212.479)" fill="#a88f33" fill-rule="evenodd"/><path d="M1268.582,1152.874a.845.845,0,0,1,.178-.53,3.849,3.849,0,0,0,1.141-1.582,10.383,10.383,0,0,0,.522-1.339,5.868,5.868,0,0,1-1.36.89c.121-.251.19-.429.251-.558-.069-.061-.36-.129-.388-.162.161-.162.251-.558.578-.821.421-.32,1.189-.87,1.787-1.36a11.91,11.91,0,0,0,1.922-1.962.731.731,0,0,1,.109.21s-.59.769-.9,1.258a1.2,1.2,0,0,0-.251.659l.558-.24s.162.6-.57,1.509c.32-.121.449-.049.631-.15a2.838,2.838,0,0,0-1.1,1.161,4.994,4.994,0,0,1-1.772,2.059,14.686,14.686,0,0,0-1.339.955h0Z" transform="translate(-1234.751 -1114.905)" fill="#a67a2e" fill-rule="evenodd"/><path d="M1129.583,297.259a4.465,4.465,0,0,0-.38,1.23c-.008.13-.041.231-.041.38a4.649,4.649,0,0,1-.08,1.27.671.671,0,0,0-.1-.21c-.061.17-.17.7-.259.9a4.223,4.223,0,0,1-.121-1.108c.008-.53.02-.631.02-.74a3.245,3.245,0,0,1-.17.51c-.061-.109-.129-.251-.21-.368a2.289,2.289,0,0,1-.162.259c-.008-.049-.028-.178-.041-.36a5.122,5.122,0,0,1-.008-.538,2.435,2.435,0,0,1,.55-.93,7.778,7.778,0,0,0,1-1.65c.129-.279.679-1.44.679-1.44h.421l-.611,1.391s-.368.761-.558,1.04-.591,1.08-.769,1.392c.129-.17.239-.259.368-.421a6.655,6.655,0,0,0,.473-.6h0Z" transform="translate(-1097.944 -286.608)" fill="#8c6228" fill-rule="evenodd"/><path d="M1204.171,216.32a1.738,1.738,0,0,1-.32.579c-.251.3-.789.7-1.052,1.019a2.757,2.757,0,0,0-.5,2.168,3.638,3.638,0,0,1,.631-1.141,8.757,8.757,0,0,0,1.04-1.489,2.505,2.505,0,0,0,.238-.789l.08-.1-.048-.231-.069-.016Z" transform="translate(-1170.182 -210.551)" fill="#cba94c" fill-rule="evenodd"/><path d="M1397.761,523.412a4.419,4.419,0,0,1-.21-.841c-.048-.4.08-.48-.069-.938-.089-.279-.251-.24-.291-.279a2.389,2.389,0,0,1-.061-.692,2.594,2.594,0,0,0-.048-.659c-.061-.049-.1-.089-.19-.388a4.3,4.3,0,0,0-.2-.538c-.049-.089-.19-.17-.19-.259,0-.178.162-.271.162-.32-.008-.1-.129-.02-.162-.049-.04-.049.1-.34.049-.38-.02-.02-.162.15-.2.1s-.089-.53-.162-.85-.142-.538-.15-.631-.558-1.659-.692-2.039a9.6,9.6,0,0,1-.271-.979,5.046,5.046,0,0,0-.089-.538c-.02.041-.008.239-.041.231s-.129-.7-.162-.809a5.635,5.635,0,0,1-.24-.748c-.041-.271-.129-.979-.19-1.461s-.089-.679-.089-.8a5,5,0,0,0-.049-.882,8.216,8.216,0,0,0-.38-1.489c-.271-.68-.991-2.419-1.12-2.852,0-.109.142-.049.142-.049s.352.882.611,1.561a10.468,10.468,0,0,0,.55,1.339,5.026,5.026,0,0,1,.6,1.82c.17,1.092.23,2.1.332,2.771a7.209,7.209,0,0,0,.19,1c.109.368.279.749.5,1.331a8.812,8.812,0,0,1,.408,1.25c.089.449.089.789.142,1.011.049.19.121.57.292,1.12s.421,1.258.59,1.7a9.415,9.415,0,0,1,.53,2.011,19.379,19.379,0,0,1,.154,2.225h0Z" transform="translate(-1355.581 -490.811)" fill="#a88f33" fill-rule="evenodd"/><path d="M1250.491,213.04l-.02.049a.085.085,0,0,1,.048.1,2.431,2.431,0,0,1-.02.332c-.02.142-.061.251-.069.34a1.7,1.7,0,0,1-.24.951c-.08.15-.129.279-.17.368a1.092,1.092,0,0,1-.21.352c.142-.08.651-.4.91-.352a1.9,1.9,0,0,0-.619.558,1.392,1.392,0,0,0,.48,0,6.678,6.678,0,0,1,1.392-.2c.481.028.291-.578.291-.578l-.556-1.222-1.052-.74-.166.04Z" transform="translate(-1216.482 -207.32)" fill="#be9c44" fill-rule="evenodd"/><path d="M1278.229,198.565a3.744,3.744,0,0,1-.659-2.08,37.437,37.437,0,0,1-.15-4l-.38-.93a2.17,2.17,0,0,0-.279-.849c-.2-.23-.59-.619-.769-.809s-.38-.449-.5-.49a1.387,1.387,0,0,1,1.371-.679,1.453,1.453,0,0,1,1.469.781,7.636,7.636,0,0,1,.781,2.853,9.787,9.787,0,0,1-.17,4.381,4.46,4.46,0,0,1-.712,1.825Z" transform="translate(-1241.477 -183.694)" fill="#a17c34" fill-rule="evenodd"/><path d="M1316.7,588.56a.8.8,0,0,0,.449-.1,1.263,1.263,0,0,0,1.108-.469.945.945,0,0,1-.089.74,1.7,1.7,0,0,1,.271-.17,2.552,2.552,0,0,1-.449,1.731.707.707,0,0,1,.522-.19,2.059,2.059,0,0,1-.178,1.3.527.527,0,0,1-.522.178,1.013,1.013,0,0,0,0-.17c-.008-.109-.049-.218-.02-.291a1.45,1.45,0,0,1-.421-.291,2.624,2.624,0,0,1-.841-1.319.52.52,0,0,1,.38-.57.454.454,0,0,1-.089-.109.614.614,0,0,0-.121-.267Z" transform="translate(-1281.42 -572.31)" fill="#8c6228" fill-rule="evenodd"/><path d="M1201.279,297.876s-.02-.028-.129.1c.02-.129.041-.251.048-.368a1.271,1.271,0,0,1,.2-.3c-.061.121-.1.23-.1.23a1.628,1.628,0,0,1,.368-.449c.15-.121.34-.178.421-.291a.742.742,0,0,0,.089-.162,2.517,2.517,0,0,0,.5-.51c.04-.049.1-.1.142-.15.069-.028.23-.1.421-.2s.421-.259.558-.32c.271-.121.558-.109.692-.3.1-.028.21-.332.19-.59a2.45,2.45,0,0,1,1.181,1.582,5.735,5.735,0,0,1-.292,2.431,3.722,3.722,0,0,1-.36,1.209c-.251.332-1.06.8-1.258,1.032-.17.19-.679.671-.659,1.019.02.259.34.4.409.449s.068.109.2.08.178-.089.231-.089.061.02.089.02a.294.294,0,0,0,.061-.008s-.02.368-.882.48c-.061.008-.121.028-.2.041a.493.493,0,0,0,.271-.2c-.121-.02-.469-.041-.558-.069a1.075,1.075,0,0,1,.2-.239c.069-.061-.008-.08-.069-.049a3.262,3.262,0,0,0-.3.23,2.912,2.912,0,0,1-.352.32.789.789,0,0,1,.15-.692c-.049.008-.142.15-.231.121a1.289,1.289,0,0,1,.028-.441,2.02,2.02,0,0,1,.312-.5l1.27-2.27.271-1.719-2.909.565h0Z" transform="translate(-1169.119 -286.715)" fill="#92723a" fill-rule="evenodd"/><path d="M1165.334,409.9s-.069.049.069.142a1.546,1.546,0,0,1-.13.2c-.068.08-.142.13-.17.2a1.108,1.108,0,0,0-.109.3,1.475,1.475,0,0,1-.19.7,3,3,0,0,0-.178.34,2.515,2.515,0,0,0-.21.4,4.187,4.187,0,0,0-.068.53l.121-.15a1.136,1.136,0,0,1-.178.291c.049-.041.19-.142.429-.352a10.638,10.638,0,0,1,1.481-1.12,2.164,2.164,0,0,1-.481.089c.1-.1,1.011-1.169,1.489-1.27a.19.19,0,0,0,.04-.13l-.409-.04-.829.178-.121-.64-.554.336Z" transform="translate(-1133.242 -398.638)" fill="#b18e3e" fill-rule="evenodd"/><path d="M1199.259,388.9a1.123,1.123,0,0,0-.21.38,1.275,1.275,0,0,1-.2-.271.7.7,0,0,0-.918-.388,1.692,1.692,0,0,1,0-.38,2.1,2.1,0,0,0,.631-.558,2.583,2.583,0,0,0,.49-.789c.08-.061.218-.162.4-.279.259-.178.57-.421.619-.692a1.654,1.654,0,0,1-.769.15c.15-.069.38-.142.352-.441.061-.041.109-.069.109-.069a.4.4,0,0,0-.142-.02c-.008-.028-.02-.069-.089-.049s-.08.02-.089.049a.431.431,0,0,0-.19.049,2.914,2.914,0,0,1-.332.238c.028-.049.069-.121.069-.121a1.406,1.406,0,0,0-.34.08,7.06,7.06,0,0,0-.862.409c.028-.049.041-.08.061-.089s.069-.02.069-.028a.294.294,0,0,1-.008-.109,3.7,3.7,0,0,1,.32-.55,1.073,1.073,0,0,0,.17-.461l.619-.311,1.74-.4,1.129.069-.142.781-.667,1.363-.57,1.242-.651.761-.6.437h0Z" transform="translate(-1165.849 -374.003)" fill="#543e26" fill-rule="evenodd"/><path d="M1206.467,356.878a10.109,10.109,0,0,1-.87.971c.121-.259.87-1.8,1.141-2.229-.061-.049-.142-.049.048-.8-.161.38-.218.578-.352.679a.251.251,0,0,1-.24.069.17.17,0,0,0,.02-.1s-.57-.069-.96-.069a5.732,5.732,0,0,0-1.59.38,6.5,6.5,0,0,0-.651.23c-.121.1-.19.21-.251.239s-.279.1-.332.178-.129.17-.129.19-.02.049.041.028c.02-.008.17-.089.34-.19.23-.129.51-.279.712-.368a3.3,3.3,0,0,1,1.019-.239,6.346,6.346,0,0,1,.918-.162,7.694,7.694,0,0,1,.862.02c-.048.041-.089.089-.069.259a1.264,1.264,0,0,1-.08.218c-.121.332-.352.882-.48,1.161-.178.38-.38.7-.48.9a6.529,6.529,0,0,1-.538,1c-.218.279-.332.449-.4.51s-.558.421-.522.55a2.7,2.7,0,0,0,1.06-.7,8.516,8.516,0,0,1,.809-.991,2.7,2.7,0,0,0,.72-1.019,4.474,4.474,0,0,1,.255-.712h0Z" transform="translate(-1170.237 -345.358)" fill="#806031" fill-rule="evenodd"/><path d="M776.983,664.813a1.271,1.271,0,0,1-.292.55c-.2.178-.55.332-.59.631s.352.449.352.449a1.556,1.556,0,0,0-.219.631,4.17,4.17,0,0,0,.02.6.266.266,0,0,0-.08.08.66.66,0,0,0,.218.421c.2.162.368.259.469.218a.935.935,0,0,1,.041.1s.15-.38.251-.712.19-.291.23-.748a4.383,4.383,0,0,1,.48-1.242l.3-.671-.489-.38-.692.073Z" transform="translate(-755.401 -647.014)" fill="#b6903c" fill-rule="evenodd"/><path d="M806.969,692.2a2.945,2.945,0,0,0-.279.332.972.972,0,0,1-.421.409c-.19.069-.311.069-.3.259s.19.271.291.368a.473.473,0,0,1,.15.461.463.463,0,0,0,.271-.279c.1-.218.808-1.549.808-1.549h-.521Z" transform="translate(-784.477 -673.741)" fill="#685026" fill-rule="evenodd"/><path d="M806.649,540.169a.4.4,0,0,0,0-.279c-.061-.121-.429-.162-.611-.3a.724.724,0,0,0-.611-.178c.028-.069.142-.219.048-.251a1.1,1.1,0,0,0-.51.19c-.089.069-.292.15-.332.2s-.109.142-.15.1-.061-.1-.129-.061a1.644,1.644,0,0,0-.461.469,2.4,2.4,0,0,1-.611.91c-.413.4-.591.659-.469.809s.178.041.2.17a1.093,1.093,0,0,1-.02.38c-.049.21-.129.409-.02.449.279.089.55-.08.611-.028.121.109-.069.5.218.578a.893.893,0,0,0,.579-.069l1.06-.57,1.02-.538.522-1.032-.28-.862-.053-.089Z" transform="translate(-781.369 -524.781)" fill="#d4b968" fill-rule="evenodd"/><path d="M908,554.538a.425.425,0,0,1,.041-.51c.219-.239.53-.34.651-.489a.187.187,0,0,0-.089-.061.806.806,0,0,1,.352-.332.337.337,0,0,0-.23-.109c-.2,0-.32.121-.5.121s-.2-.089-.2-.089.3-.028.271-.162-.08-.142-.08-.142a3.038,3.038,0,0,0,.679-.368.74.74,0,0,0,.109-.34c.068,0,.469-.21.631-.121s.049.332.049.332a3.988,3.988,0,0,0,.739-.729c.218.02.32-.15.48-.15.2,0,.51.271.57.849a3.633,3.633,0,0,1,.041,1.109,5.114,5.114,0,0,0,.08,1.391c.068.279.23.251.23.251a.453.453,0,0,1-.142.218.676.676,0,0,0-.109.469,1.99,1.99,0,0,0,.061.218,1.01,1.01,0,0,0-.162.251.284.284,0,0,1-.259.17,1.249,1.249,0,0,0-.178,0c-.129.008-.17.028-.251,0s-.142-.061-.109-.32-1-.862-1-.862l-1.68-.6h0Z" transform="translate(-883.723 -536.686)" fill="#cca849" fill-rule="evenodd"/><path d="M838.091,707.446s.368.49,1.881.49a3.807,3.807,0,0,0,1.12-.109,3.057,3.057,0,0,0,1.379-1c.55-.651.429-.918.429-.918l-.32-.049-1.04.142-3.077,1.311-.373.133Z" transform="translate(-815.741 -687.037)" fill="#585136" fill-rule="evenodd"/><path d="M832.621,672.556s-1.311.292-1.311-.538a2.883,2.883,0,0,1,1.011-1.808,3.8,3.8,0,0,1,.712-.32h1.21l.23.611-.1,1.319-1.752.736Z" transform="translate(-809.142 -652.026)" fill="#252211" fill-rule="evenodd"/><path d="M857.116,676.153s-.251-.231-.821.08a2.054,2.054,0,0,0-1.06,1.55c-.028.522.429.91,1.141.93a3.625,3.625,0,0,0,1.011-.08c-.041-.049-.251-.311-.251-.311l-.02-2.168h0Z" transform="translate(-832.427 -658.042)" fill="#c3b378" fill-rule="evenodd"/><path d="M865.724,683.557s-.061-.049-.24.049a3.916,3.916,0,0,0-.538.441,2.177,2.177,0,0,0-.24.2c-.251.3-.461.789-.34,1.032s.522.522,1.541.332l-.187-2.051h0Z" transform="translate(-841.282 -665.317)" fill="#e6d89c" fill-rule="evenodd"/><path d="M869.723,660.156a1.288,1.288,0,0,0-.162.651,1.073,1.073,0,0,0,1.08,1.108c.651.041,1.088-.938,1.561-1.319a1.135,1.135,0,0,1,.578-.3,5.371,5.371,0,0,0-1.351-.918c-.971-.522-2.059-.591-2.65.21.279-.02,1.181-.251,1.181-.251l.441.142-.68.676h0Z" transform="translate(-845.613 -641.415)" fill="#252211" fill-rule="evenodd"/><path d="M943.873,694.785c-.028-.061-.049-.142.069-.162s.17-.008.21.08.08.162.02.2a.28.28,0,0,1-.3-.117Zm-.19-.57s-.041.028-.02-.028.061-.19.19-.162.1.17.08.21a.21.21,0,0,1-.21.08.067.067,0,0,1-.041-.1Z" transform="translate(-918.493 -675.513)" fill="#6f674d" fill-rule="evenodd"/><path d="M534,663.307a1.251,1.251,0,0,0,.692.231,1.874,1.874,0,0,0,1.06-.631c.129-.142.24-.291.36-.409a2.142,2.142,0,0,0,.218-.218c.069-.08.142-.23.178-.279a3.7,3.7,0,0,1-.352.271,4.154,4.154,0,0,1-.522.271c-.109.041-1.242.64-1.242.64l-.392.125Z" transform="translate(-519.76 -644.347)" fill="#ac924c" fill-rule="evenodd"/><path d="M552.34,586.5a1.63,1.63,0,0,1,.522-.2,9.733,9.733,0,0,1,1-.142l.55.24.218.829-.4.862-.51.32-.579-.93-.8-.979h0Z" transform="translate(-537.611 -570.529)" fill="#9f8e57" fill-rule="evenodd"/><path d="M518.39,532.786l-.19.142a1.238,1.238,0,0,0,.089-.36,3.334,3.334,0,0,1,.558-1.311,4.156,4.156,0,0,1,.3-.36.2.2,0,0,0-.162.04,1.937,1.937,0,0,1,.558-.57c.259-.16.36-.21.631-.08s.34.2.538.19a.607.607,0,0,0,.368-.218s.041.129-.109.429a6.032,6.032,0,0,1-.74.91l-1.23.841-.611.347h0Z" transform="translate(-504.381 -516.075)" fill="#eac970" fill-rule="evenodd"/><path d="M559.421,533.258s.89.121,1.161-.129c.008.028.041.028.041.049a.07.07,0,0,1-.02.04.659.659,0,0,1,.089-.008.524.524,0,0,0,.109.02.632.632,0,0,0,.089-.008.151.151,0,0,1-.061.1c.041,0,.08.008.08.04s.008.13-.041.15a.183.183,0,0,1-.121-.008.5.5,0,0,0,.061.219.457.457,0,0,0,.48.271s.121.291-.389.938c-.069.089-.142.21-.23.312a1.184,1.184,0,0,0-.08.239,2.023,2.023,0,0,0,1.109-1.088,5.715,5.715,0,0,0,.251-2.209,1.14,1.14,0,0,0-.089-.441.382.382,0,0,0-.6-.069,7.314,7.314,0,0,1-.991,1.031,3.379,3.379,0,0,1-.85.55h0Z" transform="translate(-544.502 -517.388)" fill="#d7bc6b" fill-rule="evenodd"/><path d="M509.053,634.153a.748.748,0,0,0-.259.48,1.568,1.568,0,0,0,.178,1.011,1.02,1.02,0,0,0,.781.579.855.855,0,0,0,.332-.069,2.1,2.1,0,0,0,.449-.279c.2-.15.36-.279.34-.291-.049-.02-1.222-.991-1.222-.991l-.441-.492-.158.053Z" transform="translate(-495.201 -617.191)" fill="#585136" fill-rule="evenodd"/><path d="M544.609,654.081a1.026,1.026,0,0,0,.38-.109c.142-.089-.829-1.052-.829-1.052l.069,1.04Z" transform="translate(-529.649 -635.509)" fill="#453a25" fill-rule="evenodd"/><path d="M517.725,613.542a1.4,1.4,0,0,0-.121.291,5.1,5.1,0,0,0,.089,1.019.738.738,0,0,0,.651.53.922.922,0,0,0,.5-.162c0-.041-.3-.08-.38-.231a1.361,1.361,0,0,1-.08-.48c-.008-.129-.008-.271.041-.32a1.04,1.04,0,0,0,.129-.469l.388-.721h-.511l-.611.38Z" transform="translate(-503.797 -596.653)" fill="#84754b" fill-rule="evenodd"/><path d="M516.69,597.218a2.217,2.217,0,0,1,.76-.651.78.78,0,0,1,.522-.048l-.21.538-.3.332.02.17a1.037,1.037,0,0,0,.251.761.784.784,0,0,0,.651.3.848.848,0,0,0,.692-.558,1.57,1.57,0,0,0-.028-1.5,1.222,1.222,0,0,0-1.032-.559,1.443,1.443,0,0,0-1.327,1.218h0Z" transform="translate(-502.912 -580.107)" fill="#252211" fill-rule="evenodd"/><path d="M899.526,675.647c-.15-.069-.008-.489.142-.619a1.054,1.054,0,0,1,.672-.3c.121-.008.238.069.218.15a1.2,1.2,0,0,1-.429.51C899.866,675.595,899.7,675.724,899.526,675.647Z" transform="translate(-875.477 -656.736)" fill="#f7f7e7" fill-rule="evenodd"/><path d="M589,623.162a.289.289,0,0,1,.279.2c.028.129-.069.388-.279.388-.17,0-.259-.21-.259-.271a.311.311,0,0,1,.041-.142A.231.231,0,0,1,589,623.162Z" transform="translate(-573.04 -606.543)" fill="#f8f6de" fill-rule="evenodd"/><path d="M520.8,626.67a.94.94,0,0,0-.409.4,1.061,1.061,0,0,0-.08.64,1.567,1.567,0,0,0,.19.441.3.3,0,0,0,.231.142.409.409,0,0,0,.21-.3,2.134,2.134,0,0,1,.142-.821c.117-.251-.283-.5-.283-.5h0Z" transform="translate(-506.421 -609.959)" fill="#d4c38b" fill-rule="evenodd"/><path d="M536.705,614.383c-.048.028-.129.069-.109.121s.19.08.251.2a.424.424,0,0,1,.049.311.492.492,0,0,0,.142-.1c.089-.1.2-.238.291-.238.061,0,.121.028.178.028.089,0,.178-.028.19-.121.02-.121-.17-.231-.279-.21a.265.265,0,0,0-.041-.279c-.089-.081-.368.061-.429.1s-.243.19-.243.19h0Z" transform="translate(-522.284 -597.693)" fill="#e2d59d" fill-rule="evenodd"/><path d="M685.3,938.177l.6-.177.17.121s.121.259.311.291c-.061.129-.219.24-.21.332a.28.28,0,0,0,.089.162,1.392,1.392,0,0,0,.522,1.787c-.251.1-.57.24-.74.32a1.309,1.309,0,0,1,.489.178c.109.1.109.129.21.19s.162.142.142.178c-.069-.041-.3-.162-.34-.049s-1,.069-1,.069l-1.618.311a.292.292,0,0,0-.109-.311c-.2-.178-.441.008-.7-.19-.34-.259-.352-.558-.461-.671a2.14,2.14,0,0,1,.862-.24.357.357,0,0,1-.049-.271c.049-.142.251-.231.19-.4.089-.02.129-.02.352-.3s.34-.34.5-.36a.739.739,0,0,0,.558-.279c.21-.2.142-.368.142-.368s.137-.045.089-.324h0Z" transform="translate(-664.446 -912.987)" fill="#cbac5a" fill-rule="evenodd"/><path d="M715.09,940.656c.008-.041.041-.061.259-.041s1.6-.129,1.978-.15a12.386,12.386,0,0,1,2.371.129c.651.138,1.311.3,1.63.38s.421.121.408.162a.117.117,0,0,1-.121.069c-.04-.008-1.1-.332-1.428-.4a12.931,12.931,0,0,0-2.08-.24,10.9,10.9,0,0,0-1.3.049,10.415,10.415,0,0,1-1.541.109c-.24-.028-.19-.028-.178-.069h0Z" transform="translate(-696.008 -915.376)" fill="#d6bc6f" fill-rule="evenodd"/><path d="M458.518,1064.4a3.291,3.291,0,0,1,1.129,1,.433.433,0,0,1-.129.611s.469,0,.409.259a3.9,3.9,0,0,1-1.331.829,2.154,2.154,0,0,1-.769.259c-.251.041-.939-.08-1.08.121a.4.4,0,0,0-.041.441,2.291,2.291,0,0,0,.368.069s-.069.19-.748.21-.85.068-.89.142.129.028.441.08.748.08.748.08a1.378,1.378,0,0,1-.51.219,8.472,8.472,0,0,0-1.278.332,1.176,1.176,0,0,0,.32.178,2.028,2.028,0,0,0-.449.162c.061.041.142.089.142.089a2.8,2.8,0,0,1-.538.51,4.4,4.4,0,0,1-1.731.53c-.979-.259-1.1-1.331-1.339-1.412-.36-.121-.53.121-.85-.049a1.99,1.99,0,0,1,.368-.23c-.162-.08-1-.611-1-.611a6.2,6.2,0,0,0-.291-.558c-.162-.279-.4-.651-.579-.979a7.963,7.963,0,0,0-.761-1.46c.061-.08.271-.069.271-.069l2.949.971,5.23.152,1.36-1.942.578.069Z" transform="translate(-436.18 -1035.948)" fill="#dfc677" fill-rule="evenodd"/><path d="M547.18,1121.691a.459.459,0,0,0,.109.089,1.587,1.587,0,0,1,.352.271c.041-.061.142-.17.32,0s.4.049.538.089.15.069.15.069a1.011,1.011,0,0,1,.259-.142c.109-.041.239-.069.38-.109a2.123,2.123,0,0,1,.368-.069c.089.061.409.4,1.691-.1,1.21-.469,1.489-.522,1.691-.449.02-.048.041-.142.352-.129a2.409,2.409,0,0,0-.259-.571l-1.428-.489h-.781l-2.342.429-1.3.741-.1.373Z" transform="translate(-532.589 -1090.279)" fill="#c4a859" fill-rule="evenodd"/><path d="M517.9,1078.063a.757.757,0,0,0,.352.449,2.025,2.025,0,0,1,.421.368s.061-.08.109-.162.089-.19.17-.218c.162-.069.53.061.611.04s.049-.162.121-.162c.17-.008.279.109.34.109s.21-.008.23-.04.028-.368.259-.53a.692.692,0,0,1,.64-.061c0,.061.008.21.17.218a.826.826,0,0,1,.32.028c.142.049.311-.008.388.23.069-.02.231-.04.19-.271a1.176,1.176,0,0,0,.32-.34c.041-.061.109-.129.162-.219a.659.659,0,0,1,.538.17c-.069.049-.109.08-.129.129a1.455,1.455,0,0,1,.162.19c.061.08.1.178.178.2a6.681,6.681,0,0,0,.761,0,1.531,1.531,0,0,1,.659.2c.041-.02.041-.028.142-.008s.178.028.069-.1c.06.028.129.089.19.028a.4.4,0,0,1,.279-.17c.17-.02.231.008.3-.17.089-.218-.218-.218-.218-.218s.142-.13.3-.3a1.364,1.364,0,0,0,.461-.692.488.488,0,0,0-.421-.59l-2.472.76-3.022-.15-2.577,1.282h0Z" transform="translate(-504.089 -1047.472)" fill="#927d49" fill-rule="evenodd"/><path d="M413.027,849.7a.867.867,0,0,0-.129.34c-.049.239-.028.21-.069.38a7.094,7.094,0,0,0-.352,2.431c.187.57.51.781.712,1.242a1.8,1.8,0,0,1,.1.251c.069.3.008.53.089.829a.917.917,0,0,0,.21.34c.24.251.631.489.8.659.238.251.578.761,1.011.809a1.458,1.458,0,0,0,.829-.23,6.9,6.9,0,0,1,.64-.48,2.388,2.388,0,0,1,.538-.162,2.436,2.436,0,0,1,.862-.041,8.3,8.3,0,0,0,1.36.271,3.7,3.7,0,0,0,.882-.121c.578-.17,1.278-.461,1.739-.591.271-.08.489-.1.712-.15a1.535,1.535,0,0,0,.882-.441c-.121-.142-.271-.36-1.08-.352a14.28,14.28,0,0,0-2.5.611,2.1,2.1,0,0,1-1.331-.061c-.571-.213-.59-.353-.59-.353a2.559,2.559,0,0,1-.851-1.489,2.664,2.664,0,0,1,.651-2.589.428.428,0,0,0,.129-.36,1.629,1.629,0,0,0,.311-1.12c-.129-.538-.959-.429-.959-.429l-4.6.8h0Z" transform="translate(-401.437 -826.251)" fill="#6e6342" fill-rule="evenodd"/><path d="M458.768,946.91a.419.419,0,0,0-.049.218c.008.109.041.251.368.57a.7.7,0,0,1,.218.59,1.021,1.021,0,0,0,.522-.15c.3-.142.4.109.4.109a.846.846,0,0,1,.279-.089.611.611,0,0,0,.251-.08,3.607,3.607,0,0,0,.659.53c.279.15.441.251.579.15a.383.383,0,0,0,.121-.352,1.048,1.048,0,0,0-.121-.21c-.089-.129-.231-.279-.24-.4-.02-.279.21-.611.162-.692s-.23-.1-.679.061a10.118,10.118,0,0,1-2.472-.255h0Z" transform="translate(-446.487 -921.659)" fill="#39331f" fill-rule="evenodd"/><path d="M494.212,968.053s-.23-.218-.15-1.278a1.315,1.315,0,0,1,.291.028A2.3,2.3,0,0,1,494.212,968.053Z" transform="translate(-480.871 -940.994)" fill="#292311" fill-rule="evenodd"/><path d="M432.293,810.632a.633.633,0,0,0,.089-.08,2.009,2.009,0,0,0-.15,1.691,2.242,2.242,0,0,0,1.978,1.671,2.267,2.267,0,0,0,1.97-1.1c.218-.271.469-.611.692-.841.332-.36.591-.461.591-.809,0-.712-.728-1.032-1.8-1.351a4.089,4.089,0,0,0-2.541-.061,1.389,1.389,0,0,0-.829.882h0Z" transform="translate(-420.594 -787.991)" fill="#252211" fill-rule="evenodd"/><path d="M567.781,1013.846l.08-.041s.02-.32.15-.311a.25.25,0,0,1,.178.251.15.15,0,0,1-.17.15.4.4,0,0,1-.238-.049Z" transform="translate(-552.639 -986.467)" fill="#3f3824" fill-rule="evenodd"/><path d="M554.31,975.59s.08-.028.178.069a1.45,1.45,0,0,1,.538.028.41.41,0,0,1,.142.129,1.405,1.405,0,0,1-.631,0C554.31,975.74,554.31,975.59,554.31,975.59Z" transform="translate(-539.528 -949.571)" fill="#2d2815" fill-rule="evenodd"/><path d="M596.587,968.247a1,1,0,0,0-.449-.219c-.041-.008-.049.02-.08.02s-.028-.069-.028-.069l-.131.069s-.02.028.049.08.162.089.19.17a.7.7,0,0,0,.041.121.433.433,0,0,0,.218-.041c.069-.041.2-.107.19-.133h0Z" transform="translate(-580.005 -942.167)" fill="#82764f" fill-rule="evenodd"/><path d="M545.21,998.132a.34.34,0,0,1,.311-.291.312.312,0,0,1,.332.251l-.162.162s-.121-.174-.48-.121Z" transform="translate(-530.671 -971.23)" fill="#2d2816" fill-rule="evenodd"/><path d="M591.929,956.995a.845.845,0,0,1-.481.21.191.191,0,0,1,0-.251c.089-.129.19-.17.291-.13A.237.237,0,0,1,591.929,956.995Z" transform="translate(-575.63 -931.295)" fill="#574f35" fill-rule="evenodd"/><path d="M631.6,953.018c.008-.041-.02-.049,0-.069s.13-.061.15-.041,0,.041,0,.08a.191.191,0,0,1-.02.109.164.164,0,0,1-.15.049c-.041-.012-.049-.069-.049-.08C631.55,953.058,631.6,953.038,631.6,953.018Zm.691-.437c0-.02.069-.061.109-.061.061,0,.061.049.069.061s.02-.008.04.028.049.1.028.142a.148.148,0,0,1-.121.061A1.074,1.074,0,0,1,632.289,952.581Z" transform="translate(-614.689 -927.119)" fill="#82764f" fill-rule="evenodd"/><path d="M607.86,974.66a.565.565,0,0,1,.21.121c-.04.028-.1.061-.1.061a.3.3,0,0,0-.109-.182Z" transform="translate(-591.65 -948.669)" fill="#6e6342" fill-rule="evenodd"/><path d="M600.313,897.25c-.02-.02.061-.069.109-.061s.069.041.121.049.061-.02.08-.041.089-.008.1,0a.224.224,0,0,1,.02.028.112.112,0,0,1,.04-.08.128.128,0,0,1,.109-.02.6.6,0,0,1,.041.15c-.008.02-.129.049-.15.028a1.429,1.429,0,0,0,.121.17c.012.02-.089.069-.129.061a1.649,1.649,0,0,1-.465-.283Zm.53-.671a.094.094,0,0,0-.041-.049c-.028-.008-.121,0-.121.049a1.5,1.5,0,0,0,.17.461c.1.142.17.259.239.291a.094.094,0,0,0,.121-.041,2.448,2.448,0,0,0,.02-.522,4.8,4.8,0,0,0-.041-.712.108.108,0,0,0-.129.02,3.778,3.778,0,0,0-.219.5h0Z" transform="translate(-584.302 -872.149)" fill="#585136" fill-rule="evenodd"/><path d="M592.177,991.973a.327.327,0,0,0-.279-.028c-.129.061-.121.3-.121.3a.192.192,0,0,0,.178-.02.544.544,0,0,0,.222-.251Z" transform="translate(-575.996 -965.472)" fill="#574f35" fill-rule="evenodd"/><path d="M613.89,941.16c-.008-.08-.08-.08-.08-.121a.091.091,0,0,1,.089-.069c.041,0,.08.049.13.08s.121.08.129.142-.08.23-.178.23-.069-.182-.089-.263Zm.781-.109s-.162.049-.15,0,.049-.061.1-.061a.159.159,0,0,1,.1-.049.088.088,0,0,1,.061.02s.109-.049.142-.02.008.028.028.061a.285.285,0,0,1,.049.121c0,.032-.121.1-.219.089C614.671,941.188,614.691,941.071,614.671,941.051Zm.942-.182s.049.028.008.061a.658.658,0,0,1-.291.089c-.121,0-.23.02-.23-.02s.1-.121.162-.142a.129.129,0,0,1,.1-.049c.049,0,.238-.02.291-.028s.089.02.06.061C615.7,940.869,615.613,940.869,615.613,940.869Zm.279-1.249s-.061.129-.129.129-.069-.028-.069-.049.069-.1.061-.121c-.02,0-.069,0-.061-.049s.069-.089.129-.08a.266.266,0,0,1,.162-.061c.069,0,.129.02.129.061s-.08.129-.109.15-.073.053-.113.02Zm-.922,2.391s-.08.008-.08.049c0,.02.02.02.049.008a.218.218,0,0,0,.049-.008c.008.008.008.048.069.048a.384.384,0,0,0,.142-.049c.048-.02.089-.041.089-.08a.12.12,0,0,0-.121-.1.162.162,0,0,0-.089.02s-.02-.041-.089,0-.061.041-.041.061c.036.032.024.053.024.053Zm-.457.421c0-.02.1-.061.129-.049a.516.516,0,0,1,.109.178c0,.02-.1.069-.142.069a.187.187,0,0,1-.109-.08c0-.008.049-.02.049-.028s-.036-.069-.036-.089Zm-.32-.591c.02-.008.02-.028.049-.049a.07.07,0,0,1,.061-.008.1.1,0,0,1,.069-.049c.049-.008.089,0,.08.02,0,.061.041.1.041.15s-.028.109-.129.15a.716.716,0,0,1-.259.02.133.133,0,0,1-.02-.13.336.336,0,0,1,.109-.105h0Z" transform="translate(-597.442 -914.34)" fill="#82764f" fill-rule="evenodd"/><path d="M630.192,1032.31s-.069.041-.069.061a.18.18,0,0,0-.008.061c0,.012.089-.008.1-.02S630.192,1032.331,630.192,1032.31Z" transform="translate(-613.312 -1004.782)" fill="#6e6342" fill-rule="evenodd"/><path d="M603.923,1024.408a.844.844,0,0,1,.162.02c.041.02.069.061.028.109s-.08.121-.17.109-.2-.061-.2-.1a.194.194,0,0,1,.049-.142c.041-.032.061-.012.129,0h0Z" transform="translate(-587.644 -997.07)" fill="#585136" fill-rule="evenodd"/><path d="M587.912,1026.7a1.141,1.141,0,0,0-.162.15c-.04.048-.239.3-.3.352a.746.746,0,0,1,.068-.1.414.414,0,0,0-.17.218c-.049.15.271.231.481.292s.291.08.291.08a2.255,2.255,0,0,1-.2-.368c-.08-.19-.121-.21-.069-.3s.1-.15.1-.218C587.932,1026.74,587.912,1026.7,587.912,1026.7Z" transform="translate(-571.682 -999.321)" fill="#574f35" fill-rule="evenodd"/><path d="M435.661,1031.266a.248.248,0,0,0,.089,0,4.119,4.119,0,0,1,1.351-.2,7.223,7.223,0,0,1,1.46.24c.829.218,1.861.651,2.528.9.178.069.352.19.48.239a3.054,3.054,0,0,0,.829.251,3.245,3.245,0,0,0,1.088-.15c.461-.1,1.25-.15,1.942-.251a3.962,3.962,0,0,0,.659-.15,3.472,3.472,0,0,1-1.869.748,5.843,5.843,0,0,1-1.61.02,4.91,4.91,0,0,1-.91-.162c-.239-.069-.728-.251-1.331-.4-.421-.109-.89-.19-1.428-.291a16.9,16.9,0,0,1-3.28-.793Z" transform="translate(-424.042 -1003.568)" fill="#252211" fill-rule="evenodd"/><line x1="3.37" y1="3.147" transform="translate(7.561 19.422)" fill="none"/><path d="M232.332,944.94c-.32.271-.659.53-.991.781l-1,.768c-.34.251-.671.51-1.011.761s-.679.489-1.04.72c.32-.271.659-.522,1-.769s.692-.489,1.02-.739l1-.769c.344-.251.675-.51,1.023-.752Zm-1.768,2.832s.36-.3.809-.72a17.309,17.309,0,0,1,1.46-1.31l-2.27,2.031Z" transform="translate(-222.202 -919.742)" fill="#cfb66c" fill-rule="evenodd"/><path d="M313.56,976.7c.178-.178.368-.352.558-.522l.291-.251c.089-.08.19-.17.279-.259.178-.178.352-.368.53-.55a3.41,3.41,0,0,1,.279-.259.755.755,0,0,1,.162-.109.472.472,0,0,1,.17-.089c-.04.061-.089.089-.129.142s-.089.089-.129.129c-.089.089-.19.17-.279.251-.19.162-.388.32-.578.489s-.368.352-.558.522c-.206.174-.4.344-.595.507Zm2.419-1.618s-1.319,1.291-1.59,1.5Z" transform="translate(-305.198 -948.669)" fill="#cfb66c" fill-rule="evenodd"/><path d="M346.25,990.44a4.3,4.3,0,0,1-.381.388l-.4.38c-.129.129-.251.259-.388.388s-.271.24-.421.352l.388-.38c.13-.129.271-.238.409-.368l.388-.38C345.979,990.687,346.108,990.557,346.25,990.44Zm.061.7a8.424,8.424,0,0,1-.429.991c-.34.68-.849,1.529-1.072,1.962Z" transform="translate(-335.469 -964.028)" fill="#cfb66c" fill-rule="evenodd"/><path d="M351.917,1016.69a1.135,1.135,0,0,1-.089.408,4.019,4.019,0,0,1-.162.38c-.061.121-.13.251-.2.368s-.15.238-.21.36l-.409.72c-.142.24-.279.481-.429.712a6.6,6.6,0,0,1,.368-.74c.142-.24.271-.48.4-.728a4.1,4.1,0,0,0,.17-.38c.061-.13.121-.251.17-.368s.109-.251.17-.368a2.383,2.383,0,0,1,.218-.364Z" transform="translate(-341.075 -989.578)" fill="#cfb66c" fill-rule="evenodd"/><path d="M447.317,1141.08a2,2,0,0,0-.36,1.2C447.066,1141.93,447.2,1141.391,447.317,1141.08Zm.38.531s-.142,1.44-.259,2.148A8.676,8.676,0,0,0,447.7,1141.611Zm2.65,2.233a15.218,15.218,0,0,0-.611,2.249c.13-.5.38-1.53.611-2.25Z" transform="translate(-435.036 -1110.651)" fill="#dec270" fill-rule="evenodd"/><path d="M626.67,1137s.971,1.6,1.7,2.969A6.736,6.736,0,0,0,626.67,1137Z" transform="translate(-609.959 -1106.68)" fill="#cbaf59" fill-rule="evenodd"/><path d="M724.52,1225.43a29.444,29.444,0,0,1,1.44,2.909A4.446,4.446,0,0,0,724.52,1225.43Z" transform="translate(-705.199 -1192.752)" fill="#e3c677" fill-rule="evenodd"/><path d="M876.121,992.469c.162-.1.481-.651.761-.789a1.912,1.912,0,0,0,.74-.449,1.783,1.783,0,0,1,.87-.7c.769-.332.24-.761.24-.761a2.487,2.487,0,0,1,.271-.23.767.767,0,0,0,.409-.651,2.834,2.834,0,0,0-.57-1.772c.429-.089,1.25-.15,1.76-.279a2.515,2.515,0,0,0,.862-.36.982.982,0,0,1,.21-1.161A6.766,6.766,0,0,0,883,983.735a3.886,3.886,0,0,0-2.44.311,1.846,1.846,0,0,1,.231.129,4.573,4.573,0,0,0-1.242.53c-.579.489-.651.89-1.278,1.189s-1.258.218-1.78.461a4.7,4.7,0,0,0-.789.538c.041.049-.008.129.069.2-.049.069-.332.53-.619.53.028.109.271.19.271.19a1.3,1.3,0,0,1-.631.162,4.594,4.594,0,0,0,1.052.882c-.048.1-.251.251-.17.441s.32.449,1.242.659a8.153,8.153,0,0,1-1.76.028,2.914,2.914,0,0,0-1.319-.028c.049.049.178.049.291.178-.121.008-.882-.089-1.141.251a2.205,2.205,0,0,0-.368,1.319.344.344,0,0,0-.21.441c.069.251.429.332.659.489s.251.23.469.19.57-.279.768-.279a.517.517,0,0,1,.34.15s.538-.259.591-.21.008.36.061.409a3.876,3.876,0,0,0,.821-.425Z" transform="translate(-849.131 -957.429)" fill="#ecd592" fill-rule="evenodd"/><path d="M481.85,424.459a12.727,12.727,0,0,0-8.778-7.739H455.24l.069,6.65h3.551v14.85h-3.62v6.638h17.338c4.179,0,7.528-4.2,7.528-4.2,5.364-7.613,1.743-16.2,1.743-16.2Zm-9.179,11.727s-1.36,1.962-2.84,1.962h-2.96l-.07-14.761h3.8s1.76.368,2.99,3.851C473.59,427.238,475.22,432.224,472.671,436.186Z" transform="translate(-443.1 -405.607)" fill="rgba(255,255,255,0.8)" fill-rule="evenodd"/></svg>
