<svg xmlns="http://www.w3.org/2000/svg" width="50" height="50" viewBox="0 0 50 50"><g transform="translate(-2390 -428)"><g transform="translate(120 49)"><g transform="translate(2270 379)"><circle cx="25" cy="25" r="25" fill="#f00500"/></g></g><g transform="translate(2394.705 437.228)"><path d="M29.658,23.45a25.982,25.982,0,0,0-2.867,3.4l-.27-.088a19.628,19.628,0,0,0-4.8-.931c-.49-.038-2.32-.038-2.918,0a16.969,16.969,0,0,0-4.76.937c-.063.025-.119.044-.176.063A25.6,25.6,0,0,0,10.9,23.457,20.587,20.587,0,0,1,27.69,22.57c.585.22,1.157.478,1.717.755ZM39.392,47.3a19.635,19.635,0,0,1-3.521,6.175,21.886,21.886,0,0,1-2.754,2.7,20.32,20.32,0,0,1-7.942,3.917,20.813,20.813,0,0,1-9.759,0,20.277,20.277,0,0,1-7.942-3.917,21.886,21.886,0,0,1-2.754-2.7A19.407,19.407,0,0,1,1.2,34.561,20.545,20.545,0,0,1,2.8,31.1c.3-.5.66-1.069.836-1.3.6,2.6,1.346,4.88,1.622,5.7a1.418,1.418,0,0,1-.069.138,22.8,22.8,0,0,0-2.446,8.872c0,.038-.006.082-.006.119a5.476,5.476,0,0,0,.126,1.918c.472,1.792,1.924,3.767,4.2,5.7,3.729,3.169,8.784,5.458,12.614,5.722,3.993.27,9.885-2.062,13.808-5.471a19.723,19.723,0,0,0,1.735-1.742,9.539,9.539,0,0,0,.924-1.232c-.013,0,0-.013.025-.025s.038-.031.025-.044.006-.025.025-.031.031-.019.025-.031,0-.025.025-.031a.028.028,0,0,0,.019-.038c-.006-.013,0-.025.013-.025s.025-.019.025-.031.013-.031.025-.031a.027.027,0,0,0,.025-.025.657.657,0,0,1,.082-.145c.094-.145.472-.817.522-.931a8.673,8.673,0,0,0,.692-2.257,6.424,6.424,0,0,0,.057-1.132c-.006-.025-.006-.069-.013-.138-.013-.126-.019-.314-.031-.5-.013-.283-.038-.679-.057-.874a18.446,18.446,0,0,0-2.383-7.659,2.18,2.18,0,0,1-.138-.264.371.371,0,0,1-.025-.05c.195-.585.994-3.031,1.629-5.829l.013.013.094.126c.163.22.6.874.792,1.188A19.314,19.314,0,0,1,39.392,47.3Z" transform="translate(0 -19.898)" fill="#f00500"/><path d="M170.135,285.186a2.116,2.116,0,0,1-.61.622,10.512,10.512,0,0,1-4,1.509,4.916,4.916,0,0,1-2.069.057c-.176-.088-.2-.157-.138-.384a3.058,3.058,0,0,1,1.226-1.471c.34-.245,1.717-1.082,2.358-1.434a8.333,8.333,0,0,1,2.49-1.006,1.28,1.28,0,0,1,.472,0c.113.044.239.377.289.78A10.262,10.262,0,0,1,170.135,285.186Zm-14.815,2.081a.683.683,0,0,1-.44.189,7.106,7.106,0,0,1-1.239-.031,13.02,13.02,0,0,1-3.779-1.088,4.758,4.758,0,0,1-1.3-.874l-.176-.182-.019-.239a6.572,6.572,0,0,1,.025-1.3,1.708,1.708,0,0,1,.195-.553c.05-.063.05-.063.277-.063a2.72,2.72,0,0,1,.887.163,17.315,17.315,0,0,1,3.326,1.66,5.769,5.769,0,0,1,1.924,1.5,1.257,1.257,0,0,1,.321.824Zm8.9,8.753c0,.019-.075.321-.17.679l-.17.66a1.083,1.083,0,0,1-.2.006h-.2l-.277.654-.308.742-.038.088-.132-.214-.132-.214v-1.742l-.05.013c-.107.025-.868.126-1.2.157a17.134,17.134,0,0,1-4.131-.088c-.22-.031-.409-.057-.415-.05s0,.409.013.906l.019.893-.107.164c-.057.088-.113.163-.113.17-.019.019-.082-.082-.226-.371a4.251,4.251,0,0,1-.352-.956l-.044-.182-.195.013-.195.019-.05-.233c-.025-.126-.057-.321-.069-.428l-.019-.2-.163-.145-.208-.176a.138.138,0,0,1-.044-.107V296l.786.006.786.006.025.082.025.082.27.013,1.056.031.786.019.2-.314.208-.314h.264l-.006-.654-.006-.654-.346-.151a3.374,3.374,0,0,1-2.012-1.729,2.411,2.411,0,0,1-.063-.817,2.5,2.5,0,0,1,.038-.817.914.914,0,0,1,.648-.641,14.947,14.947,0,0,1,1.874-.031l1.748.006.195.094a1.094,1.094,0,0,1,.472.371,1.039,1.039,0,0,1,.195.742,5.536,5.536,0,0,1-.094,1.207,2.607,2.607,0,0,1-.365.723,3.35,3.35,0,0,1-1.409.987l-.151.057.006.66.006.66.138.013.138.013.189.283.182.283h.843l.912.013c.063.013.075.006.138-.1l.075-.113h.723a2.282,2.282,0,0,1,.7.006Zm-3.32,1.8c-.119.069-.2.1-.22.088s-.107-.082-.2-.151l-.17-.138-.176.189c-.384.415-.4.434-.509.44-.176.019-.214-.013-.428-.333-.113-.163-.2-.3-.2-.3s-.082-.013-.176-.019l-.176-.019-.082.17-.082.17-.145-.044a3.07,3.07,0,0,1-.333-.132l-.189-.094v-.358l1.673.006,1.673.006.006.17c.006.2.013.195-.264.352Z" transform="translate(-138.904 -265.298)"/><path d="M76.381,351.009c-.006-.025-.006-.069-.013-.138a13.372,13.372,0,0,0-9.816,3.037S65.264,348,59.228,348s-8.275,5.911-8.275,5.911a10.868,10.868,0,0,0-9.545-3.138c0,.038-.006.082-.006.12a5.475,5.475,0,0,0,.126,1.918c.472,1.792,1.924,3.767,4.2,5.7,3.729,3.169,8.784,5.458,12.614,5.722,3.993.27,9.885-2.062,13.808-5.471a19.72,19.72,0,0,0,1.735-1.742,9.537,9.537,0,0,0,.924-1.232c-.013,0,0-.013.025-.025s.038-.031.025-.044.006-.025.025-.031.031-.019.025-.031,0-.025.025-.031a.028.028,0,0,0,.019-.038c-.006-.013,0-.025.013-.025s.025-.019.025-.031.013-.031.025-.031a.027.027,0,0,0,.025-.025.659.659,0,0,1,.082-.145c.094-.145.472-.817.522-.931a8.672,8.672,0,0,0,.692-2.257,7.618,7.618,0,0,0,.044-1.132Zm-15.72,7.671c-.119.069-.2.1-.22.088s-.107-.082-.2-.151l-.17-.138-.176.189c-.384.415-.4.434-.509.44-.176.019-.214-.013-.428-.333-.113-.163-.2-.3-.2-.3s-.082-.013-.176-.019l-.176-.019-.082.17-.082.17-.145-.044a3.08,3.08,0,0,1-.333-.132l-.189-.094v-.358l1.673.006,1.673.006.006.17c.006.2.013.195-.264.352Zm3.144-1.132-.17.66a1.077,1.077,0,0,1-.2.006h-.2l-.27.66-.308.742-.038.088-.132-.214-.132-.214v-1.742l-.05.013c-.107.025-.868.126-1.2.157a17.137,17.137,0,0,1-4.131-.088c-.22-.031-.409-.057-.415-.05s0,.409.013.906l.019.893-.107.163c-.057.088-.113.163-.113.17-.019.019-.082-.082-.226-.371a4.25,4.25,0,0,1-.352-.956l-.044-.182-.195.013-.195.019-.05-.233c-.025-.126-.057-.321-.069-.428l-.019-.2-.163-.145-.208-.176a.138.138,0,0,1-.044-.107v-.075l.786.006.786.006.025.082.025.082.27.013,1.056.031.786.019.2-.314.208-.314h.264l-.006-.654-.006-.654-.346-.151a3.374,3.374,0,0,1-2.012-1.729,2.411,2.411,0,0,1-.063-.817,2.5,2.5,0,0,1,.038-.817.914.914,0,0,1,.648-.641,14.962,14.962,0,0,1,1.874-.031l1.748.006.195.094a1.093,1.093,0,0,1,.472.371,1.039,1.039,0,0,1,.195.742,5.537,5.537,0,0,1-.094,1.207,2.608,2.608,0,0,1-.365.723,3.35,3.35,0,0,1-1.409.987l-.151.057.006.66.006.66.138.013.138.013.189.283.182.283h.843l.912.013c.063.013.075.006.138-.1l.075-.113h.723a3.045,3.045,0,0,1,.723.025,4.339,4.339,0,0,0-.195.654Z" transform="translate(-38.662 -326.153)" fill="#fff"/><path d="M76.588,24.215c-.013-.283-.038-.679-.057-.874a18.446,18.446,0,0,0-2.383-7.659,2.181,2.181,0,0,1-.138-.264.372.372,0,0,1-.025-.05c.195-.585.993-3.031,1.629-5.829.861-3.8,1.409-8.237-.264-9.57,0,0-2.892-.214-6.766,3.584a25.981,25.981,0,0,0-2.867,3.4l-.27-.088a19.628,19.628,0,0,0-4.8-.931c-.49-.038-2.32-.038-2.918,0a16.969,16.969,0,0,0-4.76.937c-.063.025-.119.044-.176.063a25.6,25.6,0,0,0-2.962-3.377C45.8-.258,42.8-.038,42.8-.038c-1.773,1.377-1.17,6.018-.252,9.941.6,2.6,1.346,4.879,1.622,5.7a1.419,1.419,0,0,1-.069.138,22.8,22.8,0,0,0-2.446,8.872A10.86,10.86,0,0,1,51.2,27.755s2.239-5.911,8.275-5.911S66.8,27.755,66.8,27.755a13.4,13.4,0,0,1,9.816-3.037ZM45.356,13.236S43,7.357,43.608,4a3.24,3.24,0,0,1,.585-1.44s2.666.264,6.967,5.043a12.291,12.291,0,0,0-1.912,1.239.022.022,0,0,1-.013.006A15.117,15.117,0,0,0,45.356,13.236Zm9.979,8.734a.683.683,0,0,1-.44.189,7.111,7.111,0,0,1-1.239-.031,13.018,13.018,0,0,1-3.779-1.088,4.759,4.759,0,0,1-1.3-.874l-.176-.182-.019-.239a6.572,6.572,0,0,1,.025-1.3,1.708,1.708,0,0,1,.195-.553c.05-.063.05-.063.277-.063a2.721,2.721,0,0,1,.887.163,17.314,17.314,0,0,1,3.326,1.66,5.768,5.768,0,0,1,1.924,1.5,1.257,1.257,0,0,1,.321.824Zm14.815-2.081a2.117,2.117,0,0,1-.61.623,10.511,10.511,0,0,1-4,1.509,4.916,4.916,0,0,1-2.069.057c-.176-.088-.2-.157-.138-.384a3.058,3.058,0,0,1,1.226-1.471c.34-.245,1.717-1.082,2.358-1.434a8.332,8.332,0,0,1,2.49-1.006,1.279,1.279,0,0,1,.472,0c.113.044.239.377.289.78A10.262,10.262,0,0,1,70.149,19.889ZM69.105,8.841l-.013-.006A11.741,11.741,0,0,0,67.244,7.6c4.156-4.779,6.728-5.043,6.728-5.043a3.411,3.411,0,0,1,.566,1.44c.585,3.358-1.685,9.243-1.685,9.243a14.978,14.978,0,0,0-3.748-4.4Z" transform="translate(-38.919 0)" fill="#ffa409"/><path d="M455.952,42.637c-.49-.063-2.811-.075-5.439,4.848l-.013-.006a11.741,11.741,0,0,0-1.849-1.239c4.156-4.779,6.728-5.043,6.728-5.043A3.336,3.336,0,0,1,455.952,42.637Z" transform="translate(-420.327 -38.644)" fill="#ff9300"/><g transform="translate(30.187 3.98)"><path d="M482.006,73.154a14.919,14.919,0,0,0-3.754-4.4c2.628-4.924,4.942-4.911,5.439-4.848C484.276,67.275,482.006,73.154,482.006,73.154Zm1.78-9.225-.094-.019Z" transform="translate(-478.252 -63.898)" fill="#ff8300"/></g><path d="M80.21,46.24A12.292,12.292,0,0,0,78.3,47.479a.022.022,0,0,1-.013.006c-2.723-4.93-5.118-4.911-5.634-4.848a3.24,3.24,0,0,1,.585-1.44C73.243,41.2,75.909,41.461,80.21,46.24Z" transform="translate(-67.97 -38.644)" fill="#ff9300"/><g transform="translate(4.588 3.98)"><path d="M76.887,68.759A15.071,15.071,0,0,0,73,73.154s-2.352-5.879-1.748-9.243C71.762,63.848,74.164,63.835,76.887,68.759Zm-5.634-4.848-.1.019Z" transform="translate(-71.152 -63.898)" fill="#ff8300"/></g><path d="M189.028,215.989s-2.012.126-1.761-1.446a2.077,2.077,0,0,1,2.264-1.7c.44.063,2.2.692,1.886,2.012s-.755,1.069-1.006,1.132A9.97,9.97,0,0,1,189.028,215.989Zm-14.84,0s-2.012.126-1.761-1.446a2.077,2.077,0,0,1,2.264-1.7c.44.063,2.2.692,1.886,2.012s-.755,1.069-1.006,1.132A9.97,9.97,0,0,1,174.188,215.989Z" transform="translate(-161.451 -199.49)" fill="#fff"/></g></g></svg>
