<svg xmlns="http://www.w3.org/2000/svg" width="50" height="50" viewBox="0 0 50 50"><circle cx="25" cy="25" r="25" fill="#eb0029"/><path d="M34.164,15.228c-1.248-.886-2.584-1.831-3.891-2.769-.03-.022-.058-.044-.094-.066a1.75,1.75,0,0,0-.513-.292l-.016-.008Q24.41,10.808,19.17,9.51L9.819,7.2l-.245-.066a2.374,2.374,0,0,0-.953-.125.658.658,0,0,0-.266.1l-.087.073a1.078,1.078,0,0,0-.245.4L8,7.642v.336l.016.052c1.969,5.6,3.991,11.284,5.941,16.783,1.5,4.234,3.063,8.619,4.584,12.925a.766.766,0,0,0,.694.512h.072a.811.811,0,0,0,.722-.4l5.719-8.458q2.088-3.087,4.18-6.18l1.711-2.534c.937-1.391,1.906-2.827,2.867-4.225l.05-.072v-.089a1.117,1.117,0,0,0-.391-1.063m-6.7,3.084c-1.344.709-2.714,1.442-4.094,2.167l2.413-2.622c1-1.1,2.05-2.234,3.075-3.347l.022-.022a3.253,3.253,0,0,1,.311-.344c.078-.08.166-.161.245-.256.534.375,1.075.755,1.6,1.128q.563.405,1.148.813-2.366,1.226-4.716,2.483m-3.45-.352c-1.033,1.134-2.1,2.3-3.163,3.448q-3.088-3.8-6.2-7.586l-2.78-3.391-.006-.008c-.209-.241-.412-.5-.614-.753-.13-.169-.267-.33-.4-.5.837.219,1.683.425,2.512.622.73.177,1.488.359,2.231.55l12.57,3.1c-1.394,1.509-2.8,3.039-4.152,4.519M20.381,32.231c.08-.769.167-1.559.239-2.336.066-.623.13-1.259.2-1.867.1-.975.209-1.984.3-2.973l.02-.175c.072-.631.144-1.281.188-1.934a2.156,2.156,0,0,1,.261-.125,3.094,3.094,0,0,0,.323-.159q2.5-1.333,5.011-2.652c1.669-.878,3.38-1.787,5.077-2.687q-2.309,3.392-4.6,6.8c-1.292,1.909-2.62,3.88-3.942,5.82-.519.777-1.061,1.567-1.573,2.328-.578.85-1.17,1.72-1.747,2.594.072-.88.158-1.766.252-2.63M10.319,10.9c-.094-.264-.2-.534-.283-.791,1.95,2.387,3.913,4.789,5.827,7.117.989,1.208,1.978,2.409,2.967,3.625.2.227.391.469.578.7.245.3.491.616.758.916-.087.753-.159,1.516-.239,2.247-.05.512-.1,1.027-.158,1.547v.006c-.022.328-.066.659-.1.981L19.5,28.71l-.008.05c-.13,1.48-.289,2.973-.441,4.423-.064.6-.122,1.216-.187,1.831-.036-.109-.078-.22-.116-.323q-.165-.448-.317-.9l-.773-2.175L10.317,10.9" transform="translate(4.5 3.937)" fill="#fff"/></svg>
