<svg xmlns="http://www.w3.org/2000/svg" width="50" height="50" viewBox="0 0 50 50"><g transform="translate(-0.056 -0.056)"><circle cx="25" cy="25" r="25" transform="translate(0.056 0.056)" fill="#fff"/><g transform="translate(2.538 7.307)"><path d="M8.249.192.039,17.437a.334.334,0,0,0,.072.39L22.284,39.074a.338.338,0,0,0,.468,0L44.925,17.829a.334.334,0,0,0,.072-.39L36.787.194a.332.332,0,0,0-.3-.194H8.554a.332.332,0,0,0-.305.192h0Z" transform="translate(0)" fill="#50af95" fill-rule="evenodd"/><path d="M80.968,54.1h0c-.159.012-.982.061-2.816.061-1.459,0-2.5-.044-2.859-.061h0c-5.639-.248-9.848-1.23-9.848-2.405s4.209-2.156,9.848-2.408v3.835c.369.027,1.425.089,2.884.089,1.751,0,2.628-.073,2.786-.088V49.292c5.627.251,9.827,1.232,9.827,2.405s-4.2,2.154-9.827,2.4h0Zm0-5.207V45.463h7.853V40.23H67.44v5.233h7.852v3.43c-6.382.293-11.181,1.557-11.181,3.072s4.8,2.778,11.181,3.072v11h5.675v-11c6.367-.293,11.159-1.556,11.159-3.07s-4.787-2.776-11.159-3.071h0Zm0,0Z" transform="translate(-55.601 -34.894)" fill="#fff" fill-rule="evenodd"/></g></g></svg>
